<svg width="34" height="34" viewBox="0 0 34 34" fill="none" xmlns="http://www.w3.org/2000/svg">
<path d="M33.075 24.9526L28.3302 20.2078C26.6357 18.5132 23.7549 19.1911 23.0771 21.394C22.5687 22.9192 20.8741 23.7664 19.349 23.4275C15.9599 22.5802 11.3845 18.1743 10.5372 14.6157C10.0289 13.0905 11.0456 11.3959 12.5707 10.8876C14.7737 10.2098 15.4515 7.32902 13.7569 5.63445L9.01212 0.88965C7.65646 -0.29655 5.62298 -0.29655 4.43678 0.88965L1.21709 4.10934C-2.00259 7.49848 1.55601 16.4797 9.52049 24.4442C17.485 32.4087 26.4662 36.1368 29.8554 32.7476L33.075 29.5279C34.2613 28.1723 34.2613 26.1388 33.075 24.9526Z" fill="#FA7B47"/>
</svg>
