<?xml version="1.0" encoding="UTF-8"?>
<svg width="36px" height="29px" viewBox="0 0 36 29" version="1.1" xmlns="http://www.w3.org/2000/svg" xmlns:xlink="http://www.w3.org/1999/xlink">
    <title>Group 11</title>
    <g id="Page-1" stroke="none" stroke-width="1" fill="none" fill-rule="evenodd">
        <g id="D-header-variation" transform="translate(-1014, -109)" fill-rule="nonzero">
            <g id="Group-6" transform="translate(0, -0)">
                <g id="Group" transform="translate(0, 30)">
                    <g id="Group-10" transform="translate(150, 62)">
                        <g id="Group-11" transform="translate(864.9182, 17)">
                            <path d="M34.9834723,15.7713597 C35.0997121,18.5486848 32.9458944,20.8960084 30.1688404,21.0185535 C30.0908428,21.0221758 30.0129864,21.023987 29.9352711,21.023987 C29.580892,21.0237405 29.2275666,20.9853916 28.8813868,20.9096016 C26.8044406,24.1163765 23.4725358,26.2996993 19.7032432,26.923834 C19.2483641,28.2601686 17.9066059,29.0833856 16.5091979,28.8834959 C15.1117898,28.6836062 14.054628,27.5172401 13.9926319,26.10697 C13.9306359,24.6966999 14.8813695,23.442066 16.2558464,23.1203231 C17.6303233,22.7985802 19.0391438,23.5008805 19.6095332,24.7921439 C25.0253962,23.7905066 28.9503822,19.0596443 28.935016,13.5519576 C28.935016,7.2466456 23.8053124,2.11694209 17.5,2.11694209 C11.1946884,2.11694209 6.06498489,7.2466456 6.06498489,13.5519576 C6.06464253,15.5016631 6.56292751,17.4190631 7.51247933,19.1219145 C7.54466248,19.1781105 7.56881844,19.238536 7.58424367,19.3014312 C7.77473557,19.8308964 7.51645276,20.416712 6.99707449,20.6331995 C6.3847521,20.8908985 5.72709383,21.0235962 5.06275394,21.023493 C4.98456821,21.023493 4.90621783,21.0216819 4.8277028,21.0180596 C2.05187858,20.8939733 -0.100057357,18.5470151 0.0165285113,15.7708658 C0.0390386622,15.2391605 0.0264781391,14.7647537 0.014199875,14.3060124 C0.00276838766,13.8740856 -0.00915705279,13.4274109 0.0104599439,12.9613308 C0.132117246,10.2560435 2.36774966,8.12926194 5.07573785,8.14267663 C7.16840567,3.35471813 11.9493783,0 17.5,0 C23.0506226,0 27.8316657,3.35471813 29.9243336,8.14274719 C32.6327787,8.1273089 34.8694117,10.2547276 34.9894703,12.9605546 C35.0091579,13.4273403 34.997303,13.8739445 34.9857304,14.3058713 C34.9735933,14.7646832 34.9609622,15.2393016 34.9834723,15.7713597 Z" id="Path" fill="#FA7B47"></path>
                            <path d="M17.5000004,4.67251458 C22.3950056,4.67251458 26.3773971,8.6556117 26.3773971,13.5519576 C26.3763492,16.3083731 25.0954582,18.9080492 22.9104567,20.588405 C20.7254552,22.2687608 17.8840653,22.8392879 15.2197715,22.1326296 L11.6265446,24.2077268 C11.255781,24.4218414 10.7925414,24.391508 10.4528649,24.130873 C10.1131884,23.8702381 9.96398023,23.4306384 10.074826,23.017088 L10.9931555,19.5913112 C9.47235009,17.9474952 8.62615943,15.7913705 8.62295659,13.5519576 C8.62295659,8.6556117 12.6049952,4.67251458 17.5000004,4.67251458 Z M13.9735277,12.4934866 C13.3874446,12.4945773 12.9145424,12.9689528 12.9152684,13.5532724 C12.915996,14.1375919 13.3900769,14.6107895 13.9743968,14.6104268 C14.5587167,14.6100637 15.0322105,14.1362776 15.0322105,13.5519576 C15.0319988,12.9673802 14.5581051,12.4934866 13.9735277,12.4934866 Z M17.293528,12.5139504 C17.2594859,12.5209 17.2258282,12.5296147 17.192691,12.5400593 C17.1596133,12.5497645 17.127103,12.561308 17.0953117,12.574636 C17.0635575,12.5880433 17.0318034,12.6028619 17.0014606,12.6190918 C16.9711177,12.6353217 16.9414805,12.6529629 16.9124784,12.6720154 C16.8834763,12.6910678 16.855321,12.7122373 16.8292826,12.7334067 C16.8017624,12.7559874 16.7763591,12.7792738 16.7516614,12.8039714 C16.7268957,12.8282476 16.7035472,12.8539286 16.6817317,12.880887 C16.6598802,12.9078193 16.6394135,12.9358462 16.620411,12.964859 C16.6010176,12.9935543 16.5831175,13.023231 16.5667818,13.0537706 C16.5504983,13.0840023 16.5358698,13.1150966 16.5229611,13.146916 C16.5095646,13.1789993 16.497789,13.2117356 16.4876787,13.245001 C16.4778702,13.2774608 16.4694024,13.3113319 16.462346,13.3452029 C16.4553743,13.3792525 16.4501691,13.41364 16.4467512,13.4482275 C16.4432935,13.4828042 16.4418116,13.5173809 16.4418116,13.5519576 C16.4418116,13.5865343 16.4432935,13.6218167 16.4467512,13.6563934 C16.450222,13.6907407 16.4554269,13.7248906 16.462346,13.7587123 C16.4694024,13.7925834 16.4778702,13.8264544 16.4876787,13.8596199 C16.4977908,13.8926536 16.5095666,13.9251548 16.5229611,13.9569992 C16.5358679,13.9890489 16.5504961,14.0203782 16.5667818,14.0508503 C16.5829411,14.0811931 16.6013585,14.1108303 16.620411,14.1397619 C16.6394174,14.1685452 16.6598844,14.196337 16.6817317,14.2230283 C16.7037214,14.2500616 16.7270609,14.2759683 16.7516614,14.3006495 C16.7763591,14.3246415 16.8017624,14.3486335 16.8292826,14.3705086 C16.8558196,14.3925441 16.883597,14.4130415 16.9124784,14.4318999 C16.9414805,14.4509524 16.9710472,14.4692992 17.0014606,14.4855291 C17.0627429,14.5174734 17.1267369,14.5439212 17.192691,14.5645616 C17.2257859,14.5744407 17.2596569,14.5829084 17.293528,14.5899649 C17.361558,14.6038854 17.4308438,14.610743 17.5002827,14.610439 C17.7806742,14.6096846 18.0494549,14.4983689 18.2482689,14.3006495 C18.2970459,14.2511362 18.3412136,14.1972847 18.3802249,14.1397619 C18.3992774,14.1108303 18.4169186,14.0811931 18.4331485,14.0508503 C18.4493784,14.0205075 18.464197,13.9887533 18.4776043,13.9569992 C18.4910116,13.9252451 18.5023019,13.8920797 18.5121104,13.8596199 C18.5226675,13.8265395 18.5311749,13.7928397 18.5375843,13.7587123 C18.5444914,13.7248944 18.5496495,13.6907427 18.553038,13.6563934 C18.5566467,13.6216511 18.5584603,13.5867457 18.5584715,13.5518165 C18.5585963,13.5173066 18.556712,13.4826833 18.553038,13.4482275 C18.5497023,13.4136381 18.5445439,13.3792488 18.5375843,13.3452029 C18.5312588,13.3112888 18.5227498,13.2778185 18.5121104,13.245001 C18.5023019,13.2118356 18.4903059,13.1793758 18.4776043,13.146916 C18.4649026,13.1144563 18.4493784,13.0841134 18.4331485,13.0537706 C18.417026,13.0232554 18.399362,12.9935798 18.3802249,12.964859 C18.3609335,12.9358367 18.3401844,12.9078101 18.3180574,12.880887 C18.2963101,12.8539131 18.2730077,12.828231 18.2482689,12.8039714 C18.2242769,12.7792738 18.1981679,12.7559874 18.1713533,12.7334067 C18.1444682,12.7122373 18.1162423,12.6910678 18.0873107,12.6720154 C18.058614,12.6528786 18.028962,12.6352146 17.9984697,12.6190918 C17.9680563,12.6028619 17.9363728,12.5880433 17.9045481,12.574636 C17.8727722,12.5613302 17.8402866,12.5497871 17.8072393,12.5400593 C17.7412403,12.5188619 17.6730721,12.5051336 17.6040128,12.4991318 C17.500343,12.4891479 17.3957758,12.4941337 17.293528,12.5139504 Z M21.0284489,12.4934866 C20.4420929,12.4946162 19.969226,12.9690089 19.9699779,13.5533192 C19.9707315,14.1376295 20.4448191,14.6108023 21.0291297,14.6104267 C21.6134404,14.6100506 22.08692,14.1362684 22.08692,13.5519576 C22.08692,12.9673802 21.6130264,12.4934866 21.0284489,12.4934866 Z" id="Combined-Shape" fill="#DE4B0F"></path>
                        </g>
                    </g>
                </g>
            </g>
        </g>
    </g>
</svg>