<svg width="117" height="180" viewBox="0 0 117 180" fill="none" xmlns="http://www.w3.org/2000/svg">
<g opacity="0.5">
<path d="M4.95 173.85L2.85 175.95L0.749991 173.85C0.549991 173.65 0.35 173.65 0.15 173.85C-0.0500002 174.05 -0.0500002 174.25 0.15 174.45L2.24999 176.55L0.15 178.65C-0.05 178.85 -0.05 179.05 0.15 179.25C0.35 179.45 0.549991 179.45 0.749991 179.25L2.85 177.15L4.95 179.25C5.15 179.45 5.34999 179.45 5.54999 179.25C5.74999 179.05 5.74999 178.85 5.54999 178.65L3.45 176.55L5.54999 174.45C5.74999 174.25 5.74999 174.05 5.54999 173.85C5.44999 173.65 5.15 173.65 4.95 173.85Z" fill="#6B6E75"/>
<path d="M4.95 156.45L2.85 158.55L0.749991 156.45C0.549991 156.25 0.35 156.25 0.15 156.45C-0.0500002 156.65 -0.0500002 156.85 0.15 157.05L2.24999 159.15L0.15 161.25C-0.05 161.45 -0.05 161.65 0.15 161.85C0.35 162.05 0.549991 162.05 0.749991 161.85L2.85 159.75L4.95 161.85C5.15 162.05 5.34999 162.05 5.54999 161.85C5.74999 161.65 5.74999 161.45 5.54999 161.25L3.45 159.15L5.54999 157.05C5.74999 156.85 5.74999 156.65 5.54999 156.45C5.44999 156.25 5.15 156.25 4.95 156.45Z" fill="#6B6E75"/>
<path d="M4.95 139.15L2.85 141.25L0.749991 139.15C0.549991 138.95 0.35 138.95 0.15 139.15C-0.0500002 139.35 -0.0500002 139.55 0.15 139.75L2.24999 141.85L0.15 143.95C-0.05 144.15 -0.05 144.35 0.15 144.55C0.35 144.75 0.549991 144.75 0.749991 144.55L2.85 142.45L4.95 144.55C5.15 144.75 5.34999 144.75 5.54999 144.55C5.74999 144.35 5.74999 144.15 5.54999 143.95L3.45 141.85L5.54999 139.75C5.74999 139.55 5.74999 139.35 5.54999 139.15C5.44999 138.95 5.15 138.95 4.95 139.15Z" fill="#6B6E75"/>
<path d="M4.95 121.75L2.85 123.85L0.749991 121.75C0.549991 121.55 0.35 121.55 0.15 121.75C-0.0500002 121.95 -0.0500002 122.15 0.15 122.35L2.24999 124.45L0.15 126.55C-0.05 126.75 -0.05 126.95 0.15 127.15C0.35 127.35 0.549991 127.35 0.749991 127.15L2.85 125.05L4.95 127.15C5.15 127.35 5.34999 127.35 5.54999 127.15C5.74999 126.95 5.74999 126.75 5.54999 126.55L3.45 124.45L5.54999 122.35C5.74999 122.15 5.74999 121.95 5.54999 121.75C5.44999 121.55 5.15 121.55 4.95 121.75Z" fill="#6B6E75"/>
<path d="M4.95 104.35L2.85 106.45L0.749991 104.35C0.549991 104.15 0.35 104.15 0.15 104.35C-0.0500002 104.55 -0.0500002 104.75 0.15 104.95L2.24999 107.05L0.15 109.15C-0.05 109.35 -0.05 109.55 0.15 109.75C0.35 109.95 0.549991 109.95 0.749991 109.75L2.85 107.65L4.95 109.75C5.15 109.95 5.34999 109.95 5.54999 109.75C5.74999 109.55 5.74999 109.35 5.54999 109.15L3.45 107.05L5.54999 104.95C5.74999 104.75 5.74999 104.55 5.54999 104.35C5.44999 104.15 5.15 104.15 4.95 104.35Z" fill="#6B6E75"/>
<path d="M4.95 87.0499L2.85 89.1499L0.749991 87.0499C0.549991 86.8499 0.35 86.8499 0.15 87.0499C-0.0500002 87.2499 -0.0500002 87.4499 0.15 87.6499L2.24999 89.7499L0.15 91.8499C-0.05 92.0499 -0.05 92.2499 0.15 92.4499C0.35 92.6499 0.549991 92.6499 0.749991 92.4499L2.85 90.3499L4.95 92.4499C5.15 92.6499 5.34999 92.6499 5.54999 92.4499C5.74999 92.2499 5.74999 92.0499 5.54999 91.8499L3.45 89.7499L5.54999 87.6499C5.74999 87.4499 5.74999 87.2499 5.54999 87.0499C5.44999 86.8499 5.15 86.8499 4.95 87.0499Z" fill="#6B6E75"/>
<path d="M4.95 69.6499L2.85 71.7499L0.749991 69.6499C0.549991 69.4499 0.35 69.4499 0.15 69.6499C-0.0500002 69.8499 -0.0500002 70.0499 0.15 70.2499L2.24999 72.35L0.15 74.4499C-0.05 74.6499 -0.05 74.85 0.15 75.05C0.35 75.25 0.549991 75.25 0.749991 75.05L2.85 72.9499L4.95 75.05C5.15 75.25 5.34999 75.25 5.54999 75.05C5.74999 74.85 5.74999 74.6499 5.54999 74.4499L3.45 72.35L5.54999 70.2499C5.74999 70.0499 5.74999 69.8499 5.54999 69.6499C5.44999 69.4499 5.15 69.4499 4.95 69.6499Z" fill="#6B6E75"/>
<path d="M4.95 52.2498L2.85 54.3498L0.749991 52.2498C0.549991 52.0498 0.35 52.0498 0.15 52.2498C-0.0500002 52.4498 -0.0500002 52.6498 0.15 52.8498L2.24999 54.9498L0.15 57.0498C-0.05 57.2498 -0.05 57.4498 0.15 57.6498C0.35 57.8498 0.549991 57.8498 0.749991 57.6498L2.85 55.5498L4.95 57.6498C5.15 57.8498 5.34999 57.8498 5.54999 57.6498C5.74999 57.4498 5.74999 57.2498 5.54999 57.0498L3.45 54.9498L5.54999 52.8498C5.74999 52.6498 5.74999 52.4498 5.54999 52.2498C5.44999 52.0498 5.15 52.0498 4.95 52.2498Z" fill="#6B6E75"/>
<path d="M4.95 34.95L2.85 37.05L0.749991 34.95C0.549991 34.75 0.35 34.75 0.15 34.95C-0.0500002 35.15 -0.0500002 35.35 0.15 35.55L2.24999 37.65L0.15 39.75C-0.05 39.95 -0.05 40.15 0.15 40.35C0.35 40.55 0.549991 40.55 0.749991 40.35L2.85 38.25L4.95 40.35C5.15 40.55 5.34999 40.55 5.54999 40.35C5.74999 40.15 5.74999 39.95 5.54999 39.75L3.45 37.65L5.54999 35.55C5.74999 35.35 5.74999 35.15 5.54999 34.95C5.44999 34.75 5.15 34.75 4.95 34.95Z" fill="#6B6E75"/>
<path d="M4.95 17.5498L2.85 19.6498L0.749991 17.5498C0.549991 17.3498 0.35 17.3498 0.15 17.5498C-0.0500002 17.7498 -0.0500002 17.9498 0.15 18.1498L2.24999 20.2498L0.15 22.3498C-0.05 22.5498 -0.05 22.7499 0.15 22.9499C0.35 23.1499 0.549991 23.1499 0.749991 22.9499L2.85 20.8498L4.95 22.9499C5.15 23.1499 5.34999 23.1499 5.54999 22.9499C5.74999 22.7499 5.74999 22.5498 5.54999 22.3498L3.45 20.2498L5.54999 18.1498C5.74999 17.9498 5.74999 17.7498 5.54999 17.5498C5.44999 17.3498 5.15 17.3498 4.95 17.5498Z" fill="#6B6E75"/>
<path d="M4.95 0.149957L2.85 2.24996L0.749991 0.149957C0.549991 -0.0500427 0.35 -0.0500426 0.15 0.149957C-0.0500002 0.349957 -0.0500002 0.549963 0.15 0.749963L2.24999 2.84997L0.15 4.94998C-0.05 5.14998 -0.05 5.34995 0.15 5.54995C0.35 5.74995 0.549991 5.74995 0.749991 5.54995L2.85 3.44998L4.95 5.54995C5.15 5.74995 5.34999 5.74995 5.54999 5.54995C5.74999 5.34995 5.74999 5.14998 5.54999 4.94998L3.45 2.84997L5.54999 0.749963C5.74999 0.549963 5.74999 0.349957 5.54999 0.149957C5.34999 -0.0500429 5.15 -0.0500429 4.95 0.149957Z" fill="#6B6E75"/>
<path d="M32.65 173.85L30.5499 175.95L28.45 173.85C28.25 173.65 28.05 173.65 27.85 173.85C27.65 174.05 27.65 174.25 27.85 174.45L29.95 176.55L27.85 178.65C27.65 178.85 27.65 179.05 27.85 179.25C28.05 179.45 28.25 179.45 28.45 179.25L30.5499 177.15L32.65 179.25C32.85 179.45 33.05 179.45 33.25 179.25C33.45 179.05 33.45 178.85 33.25 178.65L31.15 176.55L33.25 174.45C33.45 174.25 33.45 174.05 33.25 173.85C33.05 173.65 32.75 173.65 32.65 173.85Z" fill="#6B6E75"/>
<path d="M32.65 156.45L30.5499 158.55L28.45 156.45C28.25 156.25 28.05 156.25 27.85 156.45C27.65 156.65 27.65 156.85 27.85 157.05L29.95 159.15L27.85 161.25C27.65 161.45 27.65 161.65 27.85 161.85C28.05 162.05 28.25 162.05 28.45 161.85L30.5499 159.75L32.65 161.85C32.85 162.05 33.05 162.05 33.25 161.85C33.45 161.65 33.45 161.45 33.25 161.25L31.15 159.15L33.25 157.05C33.45 156.85 33.45 156.65 33.25 156.45C33.05 156.25 32.75 156.25 32.65 156.45Z" fill="#6B6E75"/>
<path d="M32.65 139.15L30.5499 141.25L28.45 139.15C28.25 138.95 28.05 138.95 27.85 139.15C27.65 139.35 27.65 139.55 27.85 139.75L29.95 141.85L27.85 143.95C27.65 144.15 27.65 144.35 27.85 144.55C28.05 144.75 28.25 144.75 28.45 144.55L30.5499 142.45L32.65 144.55C32.85 144.75 33.05 144.75 33.25 144.55C33.45 144.35 33.45 144.15 33.25 143.95L31.15 141.85L33.25 139.75C33.45 139.55 33.45 139.35 33.25 139.15C33.05 138.95 32.75 138.95 32.65 139.15Z" fill="#6B6E75"/>
<path d="M32.65 121.75L30.5499 123.85L28.45 121.75C28.25 121.55 28.05 121.55 27.85 121.75C27.65 121.95 27.65 122.15 27.85 122.35L29.95 124.45L27.85 126.55C27.65 126.75 27.65 126.95 27.85 127.15C28.05 127.35 28.25 127.35 28.45 127.15L30.5499 125.05L32.65 127.15C32.85 127.35 33.05 127.35 33.25 127.15C33.45 126.95 33.45 126.75 33.25 126.55L31.15 124.45L33.25 122.35C33.45 122.15 33.45 121.95 33.25 121.75C33.05 121.55 32.75 121.55 32.65 121.75Z" fill="#6B6E75"/>
<path d="M32.65 104.35L30.5499 106.45L28.45 104.35C28.25 104.15 28.05 104.15 27.85 104.35C27.65 104.55 27.65 104.75 27.85 104.95L29.95 107.05L27.85 109.15C27.65 109.35 27.65 109.55 27.85 109.75C28.05 109.95 28.25 109.95 28.45 109.75L30.5499 107.65L32.65 109.75C32.85 109.95 33.05 109.95 33.25 109.75C33.45 109.55 33.45 109.35 33.25 109.15L31.15 107.05L33.25 104.95C33.45 104.75 33.45 104.55 33.25 104.35C33.05 104.15 32.75 104.15 32.65 104.35Z" fill="#6B6E75"/>
<path d="M32.65 87.0499L30.5499 89.1499L28.45 87.0499C28.25 86.8499 28.05 86.8499 27.85 87.0499C27.65 87.2499 27.65 87.4499 27.85 87.6499L29.95 89.7499L27.85 91.8499C27.65 92.0499 27.65 92.2499 27.85 92.4499C28.05 92.6499 28.25 92.6499 28.45 92.4499L30.5499 90.3499L32.65 92.4499C32.85 92.6499 33.05 92.6499 33.25 92.4499C33.45 92.2499 33.45 92.0499 33.25 91.8499L31.15 89.7499L33.25 87.6499C33.45 87.4499 33.45 87.2499 33.25 87.0499C33.05 86.8499 32.75 86.8499 32.65 87.0499Z" fill="#6B6E75"/>
<path d="M32.65 69.6499L30.5499 71.7499L28.45 69.6499C28.25 69.4499 28.05 69.4499 27.85 69.6499C27.65 69.8499 27.65 70.0499 27.85 70.2499L29.95 72.35L27.85 74.4499C27.65 74.6499 27.65 74.85 27.85 75.05C28.05 75.25 28.25 75.25 28.45 75.05L30.5499 72.9499L32.65 75.05C32.85 75.25 33.05 75.25 33.25 75.05C33.45 74.85 33.45 74.6499 33.25 74.4499L31.15 72.35L33.25 70.2499C33.45 70.0499 33.45 69.8499 33.25 69.6499C33.05 69.4499 32.75 69.4499 32.65 69.6499Z" fill="#6B6E75"/>
<path d="M32.65 52.2498L30.5499 54.3498L28.45 52.2498C28.25 52.0498 28.05 52.0498 27.85 52.2498C27.65 52.4498 27.65 52.6498 27.85 52.8498L29.95 54.9498L27.85 57.0498C27.65 57.2498 27.65 57.4498 27.85 57.6498C28.05 57.8498 28.25 57.8498 28.45 57.6498L30.5499 55.5498L32.65 57.6498C32.85 57.8498 33.05 57.8498 33.25 57.6498C33.45 57.4498 33.45 57.2498 33.25 57.0498L31.15 54.9498L33.25 52.8498C33.45 52.6498 33.45 52.4498 33.25 52.2498C33.05 52.0498 32.75 52.0498 32.65 52.2498Z" fill="#6B6E75"/>
<path d="M32.65 34.95L30.5499 37.05L28.45 34.95C28.25 34.75 28.05 34.75 27.85 34.95C27.65 35.15 27.65 35.35 27.85 35.55L29.95 37.65L27.85 39.75C27.65 39.95 27.65 40.15 27.85 40.35C28.05 40.55 28.25 40.55 28.45 40.35L30.5499 38.25L32.65 40.35C32.85 40.55 33.05 40.55 33.25 40.35C33.45 40.15 33.45 39.95 33.25 39.75L31.15 37.65L33.25 35.55C33.45 35.35 33.45 35.15 33.25 34.95C33.05 34.75 32.75 34.75 32.65 34.95Z" fill="#6B6E75"/>
<path d="M32.65 17.5498L30.5499 19.6498L28.45 17.5498C28.25 17.3498 28.05 17.3498 27.85 17.5498C27.65 17.7498 27.65 17.9498 27.85 18.1498L29.95 20.2498L27.85 22.3498C27.65 22.5498 27.65 22.7499 27.85 22.9499C28.05 23.1499 28.25 23.1499 28.45 22.9499L30.5499 20.8498L32.65 22.9499C32.85 23.1499 33.05 23.1499 33.25 22.9499C33.45 22.7499 33.45 22.5498 33.25 22.3498L31.15 20.2498L33.25 18.1498C33.45 17.9498 33.45 17.7498 33.25 17.5498C33.05 17.3498 32.75 17.3498 32.65 17.5498Z" fill="#6B6E75"/>
<path d="M32.65 0.149957L30.5499 2.24996L28.45 0.149957C28.25 -0.0500427 28.05 -0.0500426 27.85 0.149957C27.65 0.349957 27.65 0.549963 27.85 0.749963L29.95 2.84997L27.85 4.94998C27.65 5.14998 27.65 5.34995 27.85 5.54995C28.05 5.74995 28.25 5.74995 28.45 5.54995L30.5499 3.44998L32.65 5.54995C32.85 5.74995 33.05 5.74995 33.25 5.54995C33.45 5.34995 33.45 5.14998 33.25 4.94998L31.15 2.84997L33.25 0.749963C33.45 0.549963 33.45 0.349957 33.25 0.149957C33.05 -0.0500429 32.75 -0.0500428 32.65 0.149957Z" fill="#6B6E75"/>
<path d="M60.3499 173.85L58.2499 175.95L56.1499 173.85C55.9499 173.65 55.7499 173.65 55.5499 173.85C55.3499 174.05 55.3499 174.25 55.5499 174.45L57.6499 176.55L55.5499 178.65C55.3499 178.85 55.3499 179.05 55.5499 179.25C55.7499 179.45 55.9499 179.45 56.1499 179.25L58.2499 177.15L60.3499 179.25C60.5499 179.45 60.7499 179.45 60.9499 179.25C61.1499 179.05 61.1499 178.85 60.9499 178.65L58.8499 176.55L60.9499 174.45C61.1499 174.25 61.1499 174.05 60.9499 173.85C60.8499 173.65 60.5499 173.65 60.3499 173.85Z" fill="#6B6E75"/>
<path d="M60.3499 156.45L58.2499 158.55L56.1499 156.45C55.9499 156.25 55.7499 156.25 55.5499 156.45C55.3499 156.65 55.3499 156.85 55.5499 157.05L57.6499 159.15L55.5499 161.25C55.3499 161.45 55.3499 161.65 55.5499 161.85C55.7499 162.05 55.9499 162.05 56.1499 161.85L58.2499 159.75L60.3499 161.85C60.5499 162.05 60.7499 162.05 60.9499 161.85C61.1499 161.65 61.1499 161.45 60.9499 161.25L58.8499 159.15L60.9499 157.05C61.1499 156.85 61.1499 156.65 60.9499 156.45C60.8499 156.25 60.5499 156.25 60.3499 156.45Z" fill="#6B6E75"/>
<path d="M60.3499 139.15L58.2499 141.25L56.1499 139.15C55.9499 138.95 55.7499 138.95 55.5499 139.15C55.3499 139.35 55.3499 139.55 55.5499 139.75L57.6499 141.85L55.5499 143.95C55.3499 144.15 55.3499 144.35 55.5499 144.55C55.7499 144.75 55.9499 144.75 56.1499 144.55L58.2499 142.45L60.3499 144.55C60.5499 144.75 60.7499 144.75 60.9499 144.55C61.1499 144.35 61.1499 144.15 60.9499 143.95L58.8499 141.85L60.9499 139.75C61.1499 139.55 61.1499 139.35 60.9499 139.15C60.8499 138.95 60.5499 138.95 60.3499 139.15Z" fill="#6B6E75"/>
<path d="M60.3499 121.75L58.2499 123.85L56.1499 121.75C55.9499 121.55 55.7499 121.55 55.5499 121.75C55.3499 121.95 55.3499 122.15 55.5499 122.35L57.6499 124.45L55.5499 126.55C55.3499 126.75 55.3499 126.95 55.5499 127.15C55.7499 127.35 55.9499 127.35 56.1499 127.15L58.2499 125.05L60.3499 127.15C60.5499 127.35 60.7499 127.35 60.9499 127.15C61.1499 126.95 61.1499 126.75 60.9499 126.55L58.8499 124.45L60.9499 122.35C61.1499 122.15 61.1499 121.95 60.9499 121.75C60.8499 121.55 60.5499 121.55 60.3499 121.75Z" fill="#6B6E75"/>
<path d="M60.3499 104.35L58.2499 106.45L56.1499 104.35C55.9499 104.15 55.7499 104.15 55.5499 104.35C55.3499 104.55 55.3499 104.75 55.5499 104.95L57.6499 107.05L55.5499 109.25C55.3499 109.45 55.3499 109.65 55.5499 109.85C55.7499 110.05 55.9499 110.05 56.1499 109.85L58.2499 107.75L60.3499 109.85C60.5499 110.05 60.7499 110.05 60.9499 109.85C61.1499 109.65 61.1499 109.45 60.9499 109.25L58.8499 107.15L60.9499 105.05C61.1499 104.85 61.1499 104.65 60.9499 104.45C60.8499 104.15 60.5499 104.15 60.3499 104.35Z" fill="#6B6E75"/>
<path d="M60.3499 87.0499L58.2499 89.1499L56.1499 87.0499C55.9499 86.8499 55.7499 86.8499 55.5499 87.0499C55.3499 87.2499 55.3499 87.4499 55.5499 87.6499L57.6499 89.7499L55.5499 91.8499C55.3499 92.0499 55.3499 92.2499 55.5499 92.4499C55.7499 92.6499 55.9499 92.6499 56.1499 92.4499L58.2499 90.3499L60.3499 92.4499C60.5499 92.6499 60.7499 92.6499 60.9499 92.4499C61.1499 92.2499 61.1499 92.0499 60.9499 91.8499L58.8499 89.7499L60.9499 87.6499C61.1499 87.4499 61.1499 87.2499 60.9499 87.0499C60.8499 86.8499 60.5499 86.8499 60.3499 87.0499Z" fill="#6B6E75"/>
<path d="M60.3499 69.6499L58.2499 71.7499L56.1499 69.6499C55.9499 69.4499 55.7499 69.4499 55.5499 69.6499C55.3499 69.8499 55.3499 70.0499 55.5499 70.2499L57.6499 72.35L55.5499 74.4499C55.3499 74.6499 55.3499 74.85 55.5499 75.05C55.7499 75.25 55.9499 75.25 56.1499 75.05L58.2499 72.9499L60.3499 75.05C60.5499 75.25 60.7499 75.25 60.9499 75.05C61.1499 74.85 61.1499 74.6499 60.9499 74.4499L58.8499 72.35L60.9499 70.2499C61.1499 70.0499 61.1499 69.8499 60.9499 69.6499C60.8499 69.4499 60.5499 69.4499 60.3499 69.6499Z" fill="#6B6E75"/>
<path d="M60.3499 52.2498L58.2499 54.3498L56.1499 52.2498C55.9499 52.0498 55.7499 52.0498 55.5499 52.2498C55.3499 52.4498 55.3499 52.6498 55.5499 52.8498L57.6499 54.9498L55.5499 57.0498C55.3499 57.2498 55.3499 57.4498 55.5499 57.6498C55.7499 57.8498 55.9499 57.8498 56.1499 57.6498L58.2499 55.5498L60.3499 57.6498C60.5499 57.8498 60.7499 57.8498 60.9499 57.6498C61.1499 57.4498 61.1499 57.2498 60.9499 57.0498L58.8499 54.9498L60.9499 52.8498C61.1499 52.6498 61.1499 52.4498 60.9499 52.2498C60.8499 52.0498 60.5499 52.0498 60.3499 52.2498Z" fill="#6B6E75"/>
<path d="M60.3499 34.95L58.2499 37.05L56.1499 34.95C55.9499 34.75 55.7499 34.75 55.5499 34.95C55.3499 35.15 55.3499 35.35 55.5499 35.55L57.6499 37.65L55.5499 39.75C55.3499 39.95 55.3499 40.15 55.5499 40.35C55.7499 40.55 55.9499 40.55 56.1499 40.35L58.2499 38.25L60.3499 40.35C60.5499 40.55 60.7499 40.55 60.9499 40.35C61.1499 40.15 61.1499 39.95 60.9499 39.75L58.8499 37.65L60.9499 35.55C61.1499 35.35 61.1499 35.15 60.9499 34.95C60.8499 34.75 60.5499 34.75 60.3499 34.95Z" fill="#6B6E75"/>
<path d="M60.3499 17.5498L58.2499 19.6498L56.1499 17.5498C55.9499 17.3498 55.7499 17.3498 55.5499 17.5498C55.3499 17.7498 55.3499 17.9498 55.5499 18.1498L57.6499 20.2498L55.5499 22.3498C55.3499 22.5498 55.3499 22.7499 55.5499 22.9499C55.7499 23.1499 55.9499 23.1499 56.1499 22.9499L58.2499 20.8498L60.3499 22.9499C60.5499 23.1499 60.7499 23.1499 60.9499 22.9499C61.1499 22.7499 61.1499 22.5498 60.9499 22.3498L58.8499 20.2498L60.9499 18.1498C61.1499 17.9498 61.1499 17.7498 60.9499 17.5498C60.8499 17.3498 60.5499 17.3498 60.3499 17.5498Z" fill="#6B6E75"/>
<path d="M60.3499 0.149957L58.2499 2.24996L56.1499 0.149957C55.9499 -0.0500427 55.7499 -0.0500426 55.5499 0.149957C55.3499 0.349957 55.3499 0.549963 55.5499 0.749963L57.6499 2.84997L55.5499 4.94998C55.3499 5.14998 55.3499 5.34995 55.5499 5.54995C55.7499 5.74995 55.9499 5.74995 56.1499 5.54995L58.2499 3.44998L60.3499 5.54995C60.5499 5.74995 60.7499 5.74995 60.9499 5.54995C61.1499 5.34995 61.1499 5.14998 60.9499 4.94998L58.8499 2.84997L60.9499 0.749963C61.1499 0.549963 61.1499 0.349957 60.9499 0.149957C60.7499 -0.0500429 60.5499 -0.0500429 60.3499 0.149957Z" fill="#6B6E75"/>
<path d="M88.0499 173.85L85.9499 175.95L83.8499 173.85C83.6499 173.65 83.4499 173.65 83.2499 173.85C83.0499 174.05 83.0499 174.25 83.2499 174.45L85.3499 176.55L83.2499 178.65C83.0499 178.85 83.0499 179.05 83.2499 179.25C83.4499 179.45 83.6499 179.45 83.8499 179.25L85.9499 177.15L88.0499 179.25C88.2499 179.45 88.4498 179.45 88.6498 179.25C88.8498 179.05 88.8498 178.85 88.6498 178.65L86.5499 176.55L88.6498 174.45C88.8498 174.25 88.8498 174.05 88.6498 173.85C88.4498 173.65 88.1499 173.65 88.0499 173.85Z" fill="#6B6E75"/>
<path d="M88.0499 156.45L85.9499 158.55L83.8499 156.45C83.6499 156.25 83.4499 156.25 83.2499 156.45C83.0499 156.65 83.0499 156.85 83.2499 157.05L85.3499 159.15L83.2499 161.25C83.0499 161.45 83.0499 161.65 83.2499 161.85C83.4499 162.05 83.6499 162.05 83.8499 161.85L85.9499 159.75L88.0499 161.85C88.2499 162.05 88.4498 162.05 88.6498 161.85C88.8498 161.65 88.8498 161.45 88.6498 161.25L86.5499 159.15L88.6498 157.05C88.8498 156.85 88.8498 156.65 88.6498 156.45C88.4498 156.25 88.1499 156.25 88.0499 156.45Z" fill="#6B6E75"/>
<path d="M88.0499 139.15L85.9499 141.25L83.8499 139.15C83.6499 138.95 83.4499 138.95 83.2499 139.15C83.0499 139.35 83.0499 139.55 83.2499 139.75L85.3499 141.85L83.2499 143.95C83.0499 144.15 83.0499 144.35 83.2499 144.55C83.4499 144.75 83.6499 144.75 83.8499 144.55L85.9499 142.45L88.0499 144.55C88.2499 144.75 88.4498 144.75 88.6498 144.55C88.8498 144.35 88.8498 144.15 88.6498 143.95L86.5499 141.85L88.6498 139.75C88.8498 139.55 88.8498 139.35 88.6498 139.15C88.4498 138.95 88.1499 138.95 88.0499 139.15Z" fill="#6B6E75"/>
<path d="M88.0499 121.75L85.9499 123.85L83.8499 121.75C83.6499 121.55 83.4499 121.55 83.2499 121.75C83.0499 121.95 83.0499 122.15 83.2499 122.35L85.3499 124.45L83.2499 126.55C83.0499 126.75 83.0499 126.95 83.2499 127.15C83.4499 127.35 83.6499 127.35 83.8499 127.15L85.9499 125.05L88.0499 127.15C88.2499 127.35 88.4498 127.35 88.6498 127.15C88.8498 126.95 88.8498 126.75 88.6498 126.55L86.5499 124.45L88.6498 122.35C88.8498 122.15 88.8498 121.95 88.6498 121.75C88.4498 121.55 88.1499 121.55 88.0499 121.75Z" fill="#6B6E75"/>
<path d="M88.0499 104.35L85.9499 106.45L83.8499 104.35C83.6499 104.15 83.4499 104.15 83.2499 104.35C83.0499 104.55 83.0499 104.75 83.2499 104.95L85.3499 107.05L83.2499 109.15C83.0499 109.35 83.0499 109.55 83.2499 109.75C83.4499 109.95 83.6499 109.95 83.8499 109.75L85.9499 107.65L88.0499 109.75C88.2499 109.95 88.4498 109.95 88.6498 109.75C88.8498 109.55 88.8498 109.35 88.6498 109.15L86.5499 107.05L88.6498 104.95C88.8498 104.75 88.8498 104.55 88.6498 104.35C88.4498 104.15 88.1499 104.15 88.0499 104.35Z" fill="#6B6E75"/>
<path d="M88.0499 87.0499L85.9499 89.1499L83.8499 87.0499C83.6499 86.8499 83.4499 86.8499 83.2499 87.0499C83.0499 87.2499 83.0499 87.4499 83.2499 87.6499L85.3499 89.7499L83.2499 91.8499C83.0499 92.0499 83.0499 92.2499 83.2499 92.4499C83.4499 92.6499 83.6499 92.6499 83.8499 92.4499L85.9499 90.3499L88.0499 92.4499C88.2499 92.6499 88.4498 92.6499 88.6498 92.4499C88.8498 92.2499 88.8498 92.0499 88.6498 91.8499L86.5499 89.7499L88.6498 87.6499C88.8498 87.4499 88.8498 87.2499 88.6498 87.0499C88.4498 86.8499 88.1499 86.8499 88.0499 87.0499Z" fill="#6B6E75"/>
<path d="M88.0499 69.6499L85.9499 71.7499L83.8499 69.6499C83.6499 69.4499 83.4499 69.4499 83.2499 69.6499C83.0499 69.8499 83.0499 70.0499 83.2499 70.2499L85.3499 72.35L83.2499 74.4499C83.0499 74.6499 83.0499 74.85 83.2499 75.05C83.4499 75.25 83.6499 75.25 83.8499 75.05L85.9499 72.9499L88.0499 75.05C88.2499 75.25 88.4498 75.25 88.6498 75.05C88.8498 74.85 88.8498 74.6499 88.6498 74.4499L86.5499 72.35L88.6498 70.2499C88.8498 70.0499 88.8498 69.8499 88.6498 69.6499C88.4498 69.4499 88.1499 69.4499 88.0499 69.6499Z" fill="#6B6E75"/>
<path d="M88.0499 52.2498L85.9499 54.3498L83.8499 52.2498C83.6499 52.0498 83.4499 52.0498 83.2499 52.2498C83.0499 52.4498 83.0499 52.6498 83.2499 52.8498L85.3499 54.9498L83.2499 57.0498C83.0499 57.2498 83.0499 57.4498 83.2499 57.6498C83.4499 57.8498 83.6499 57.8498 83.8499 57.6498L85.9499 55.5498L88.0499 57.6498C88.2499 57.8498 88.4498 57.8498 88.6498 57.6498C88.8498 57.4498 88.8498 57.2498 88.6498 57.0498L86.5499 54.9498L88.6498 52.8498C88.8498 52.6498 88.8498 52.4498 88.6498 52.2498C88.4498 52.0498 88.1499 52.0498 88.0499 52.2498Z" fill="#6B6E75"/>
<path d="M88.0499 34.95L85.9499 37.05L83.8499 34.95C83.6499 34.75 83.4499 34.75 83.2499 34.95C83.0499 35.15 83.0499 35.35 83.2499 35.55L85.3499 37.65L83.2499 39.75C83.0499 39.95 83.0499 40.15 83.2499 40.35C83.4499 40.55 83.6499 40.55 83.8499 40.35L85.9499 38.25L88.0499 40.35C88.2499 40.55 88.4498 40.55 88.6498 40.35C88.8498 40.15 88.8498 39.95 88.6498 39.75L86.5499 37.65L88.6498 35.55C88.8498 35.35 88.8498 35.15 88.6498 34.95C88.4498 34.75 88.1499 34.75 88.0499 34.95Z" fill="#6B6E75"/>
<path d="M88.0499 17.5498L85.9499 19.6498L83.8499 17.5498C83.6499 17.3498 83.4499 17.3498 83.2499 17.5498C83.0499 17.7498 83.0499 17.9498 83.2499 18.1498L85.3499 20.2498L83.2499 22.3498C83.0499 22.5498 83.0499 22.7499 83.2499 22.9499C83.4499 23.1499 83.6499 23.1499 83.8499 22.9499L85.9499 20.8498L88.0499 22.9499C88.2499 23.1499 88.4498 23.1499 88.6498 22.9499C88.8498 22.7499 88.8498 22.5498 88.6498 22.3498L86.5499 20.2498L88.6498 18.1498C88.8498 17.9498 88.8498 17.7498 88.6498 17.5498C88.4498 17.3498 88.1499 17.3498 88.0499 17.5498Z" fill="#6B6E75"/>
<path d="M88.0499 0.149957L85.9499 2.24996L83.8499 0.149957C83.6499 -0.0500427 83.4499 -0.0500426 83.2499 0.149957C83.0499 0.349957 83.0499 0.549963 83.2499 0.749963L85.3499 2.84997L83.2499 4.94998C83.0499 5.14998 83.0499 5.34995 83.2499 5.54995C83.4499 5.74995 83.6499 5.74995 83.8499 5.54995L85.9499 3.44998L88.0499 5.54995C88.2499 5.74995 88.4498 5.74995 88.6498 5.54995C88.8498 5.34995 88.8498 5.14998 88.6498 4.94998L86.5499 2.84997L88.6498 0.749963C88.8498 0.549963 88.8498 0.349957 88.6498 0.149957C88.4498 -0.0500429 88.1499 -0.0500428 88.0499 0.149957Z" fill="#6B6E75"/>
<path d="M115.75 173.85L113.65 175.95L111.55 173.85C111.35 173.65 111.15 173.65 110.95 173.85C110.75 174.05 110.75 174.25 110.95 174.45L113.05 176.55L110.95 178.65C110.75 178.85 110.75 179.05 110.95 179.25C111.15 179.45 111.35 179.45 111.55 179.25L113.65 177.15L115.75 179.25C115.95 179.45 116.15 179.45 116.35 179.25C116.55 179.05 116.55 178.85 116.35 178.65L114.25 176.55L116.35 174.45C116.55 174.25 116.55 174.05 116.35 173.85C116.15 173.65 115.95 173.65 115.75 173.85Z" fill="#6B6E75"/>
<path d="M115.75 156.45L113.65 158.55L111.55 156.45C111.35 156.25 111.15 156.25 110.95 156.45C110.75 156.65 110.75 156.85 110.95 157.05L113.05 159.15L110.95 161.25C110.75 161.45 110.75 161.65 110.95 161.85C111.15 162.05 111.35 162.05 111.55 161.85L113.65 159.75L115.75 161.85C115.95 162.05 116.15 162.05 116.35 161.85C116.55 161.65 116.55 161.45 116.35 161.25L114.25 159.15L116.35 157.05C116.55 156.85 116.55 156.65 116.35 156.45C116.15 156.25 115.95 156.25 115.75 156.45Z" fill="#6B6E75"/>
<path d="M115.75 139.15L113.65 141.25L111.55 139.15C111.35 138.95 111.15 138.95 110.95 139.15C110.75 139.35 110.75 139.55 110.95 139.75L113.05 141.85L110.95 143.95C110.75 144.15 110.75 144.35 110.95 144.55C111.15 144.75 111.35 144.75 111.55 144.55L113.65 142.45L115.75 144.55C115.95 144.75 116.15 144.75 116.35 144.55C116.55 144.35 116.55 144.15 116.35 143.95L114.25 141.85L116.35 139.75C116.55 139.55 116.55 139.35 116.35 139.15C116.15 138.95 115.95 138.95 115.75 139.15Z" fill="#6B6E75"/>
<path d="M115.75 121.75L113.65 123.85L111.55 121.75C111.35 121.55 111.15 121.55 110.95 121.75C110.75 121.95 110.75 122.15 110.95 122.35L113.05 124.45L110.95 126.55C110.75 126.75 110.75 126.95 110.95 127.15C111.15 127.35 111.35 127.35 111.55 127.15L113.65 125.05L115.75 127.15C115.95 127.35 116.15 127.35 116.35 127.15C116.55 126.95 116.55 126.75 116.35 126.55L114.25 124.45L116.35 122.35C116.55 122.15 116.55 121.95 116.35 121.75C116.15 121.55 115.95 121.55 115.75 121.75Z" fill="#6B6E75"/>
<path d="M115.75 104.35L113.65 106.45L111.55 104.35C111.35 104.15 111.15 104.15 110.95 104.35C110.75 104.55 110.75 104.75 110.95 104.95L113.05 107.05L110.95 109.15C110.75 109.35 110.75 109.55 110.95 109.75C111.15 109.95 111.35 109.95 111.55 109.75L113.65 107.65L115.75 109.75C115.95 109.95 116.15 109.95 116.35 109.75C116.55 109.55 116.55 109.35 116.35 109.15L114.25 107.05L116.35 104.95C116.55 104.75 116.55 104.55 116.35 104.35C116.15 104.15 115.95 104.15 115.75 104.35Z" fill="#6B6E75"/>
<path d="M115.75 87.0499L113.65 89.1499L111.55 87.0499C111.35 86.8499 111.15 86.8499 110.95 87.0499C110.75 87.2499 110.75 87.4499 110.95 87.6499L113.05 89.7499L110.95 91.8499C110.75 92.0499 110.75 92.2499 110.95 92.4499C111.15 92.6499 111.35 92.6499 111.55 92.4499L113.65 90.3499L115.75 92.4499C115.95 92.6499 116.15 92.6499 116.35 92.4499C116.55 92.2499 116.55 92.0499 116.35 91.8499L114.25 89.7499L116.35 87.6499C116.55 87.4499 116.55 87.2499 116.35 87.0499C116.15 86.8499 115.95 86.8499 115.75 87.0499Z" fill="#6B6E75"/>
<path d="M115.75 69.6499L113.65 71.7499L111.55 69.6499C111.35 69.4499 111.15 69.4499 110.95 69.6499C110.75 69.8499 110.75 70.0499 110.95 70.2499L113.05 72.35L110.95 74.4499C110.75 74.6499 110.75 74.85 110.95 75.05C111.15 75.25 111.35 75.25 111.55 75.05L113.65 72.9499L115.75 75.05C115.95 75.25 116.15 75.25 116.35 75.05C116.55 74.85 116.55 74.6499 116.35 74.4499L114.25 72.35L116.35 70.2499C116.55 70.0499 116.55 69.8499 116.35 69.6499C116.15 69.4499 115.95 69.4499 115.75 69.6499Z" fill="#6B6E75"/>
<path d="M115.75 52.2498L113.65 54.3498L111.55 52.2498C111.35 52.0498 111.15 52.0498 110.95 52.2498C110.75 52.4498 110.75 52.6498 110.95 52.8498L113.05 54.9498L110.95 57.0498C110.75 57.2498 110.75 57.4498 110.95 57.6498C111.15 57.8498 111.35 57.8498 111.55 57.6498L113.65 55.5498L115.75 57.6498C115.95 57.8498 116.15 57.8498 116.35 57.6498C116.55 57.4498 116.55 57.2498 116.35 57.0498L114.25 54.9498L116.35 52.8498C116.55 52.6498 116.55 52.4498 116.35 52.2498C116.15 52.0498 115.95 52.0498 115.75 52.2498Z" fill="#6B6E75"/>
<path d="M115.75 34.95L113.65 37.05L111.55 34.95C111.35 34.75 111.15 34.75 110.95 34.95C110.75 35.15 110.75 35.35 110.95 35.55L113.05 37.65L110.95 39.75C110.75 39.95 110.75 40.15 110.95 40.35C111.15 40.55 111.35 40.55 111.55 40.35L113.65 38.25L115.75 40.35C115.95 40.55 116.15 40.55 116.35 40.35C116.55 40.15 116.55 39.95 116.35 39.75L114.25 37.65L116.35 35.55C116.55 35.35 116.55 35.15 116.35 34.95C116.15 34.75 115.95 34.75 115.75 34.95Z" fill="#6B6E75"/>
<path d="M115.75 17.5498L113.65 19.6498L111.55 17.5498C111.35 17.3498 111.15 17.3498 110.95 17.5498C110.75 17.7498 110.75 17.9498 110.95 18.1498L113.05 20.2498L110.95 22.3498C110.75 22.5498 110.75 22.7499 110.95 22.9499C111.15 23.1499 111.35 23.1499 111.55 22.9499L113.65 20.8498L115.75 22.9499C115.95 23.1499 116.15 23.1499 116.35 22.9499C116.55 22.7499 116.55 22.5498 116.35 22.3498L114.25 20.2498L116.35 18.1498C116.55 17.9498 116.55 17.7498 116.35 17.5498C116.15 17.3498 115.95 17.3498 115.75 17.5498Z" fill="#6B6E75"/>
<path d="M115.75 0.149957L113.65 2.24996L111.55 0.149957C111.35 -0.0500427 111.15 -0.0500426 110.95 0.149957C110.75 0.349957 110.75 0.549963 110.95 0.749963L113.05 2.84997L110.95 4.94998C110.75 5.14998 110.75 5.34995 110.95 5.54995C111.15 5.74995 111.35 5.74995 111.55 5.54995L113.65 3.44998L115.75 5.54995C115.95 5.74995 116.15 5.74995 116.35 5.54995C116.55 5.34995 116.55 5.14998 116.35 4.94998L114.25 2.84997L116.35 0.749963C116.55 0.549963 116.55 0.349957 116.35 0.149957C116.15 -0.0500429 115.95 -0.0500429 115.75 0.149957Z" fill="#6B6E75"/>
</g>
</svg>
