<svg width="163" height="84" viewBox="0 0 163 84" fill="none" xmlns="http://www.w3.org/2000/svg">
<path d="M159.403 82.5703C159.403 81.8364 159.99 81.2493 160.724 81.2493C161.458 81.2493 162.045 81.8364 162.045 82.5703C162.045 83.3042 161.458 83.8913 160.724 83.8913C159.99 83.8913 159.403 83.3042 159.403 82.5703Z" fill="#6B6E75"/>
<path d="M147.073 82.5703C147.073 81.8364 147.66 81.2493 148.394 81.2493C149.128 81.2493 149.715 81.8364 149.715 82.5703C149.715 83.3042 149.128 83.8913 148.394 83.8913C147.66 83.8913 147.073 83.3042 147.073 82.5703Z" fill="#6B6E75"/>
<path d="M134.891 82.5703C134.891 81.8364 135.478 81.2493 136.212 81.2493C136.946 81.2493 137.533 81.8364 137.533 82.5703C137.533 83.3042 136.946 83.8913 136.212 83.8913C135.478 83.8913 134.891 83.3042 134.891 82.5703Z" fill="#6B6E75"/>
<path d="M122.561 82.5703C122.561 81.8364 123.148 81.2493 123.882 81.2493C124.616 81.2493 125.203 81.8364 125.203 82.5703C125.203 83.3042 124.616 83.8913 123.882 83.8913C123.148 83.8913 122.561 83.3042 122.561 82.5703Z" fill="#6B6E75"/>
<path d="M110.378 82.5703C110.378 81.8364 110.966 81.2493 111.699 81.2493C112.433 81.2493 113.02 81.8364 113.02 82.5703C113.02 83.3042 112.433 83.8913 111.699 83.8913C110.966 83.8913 110.378 83.3042 110.378 82.5703Z" fill="#6B6E75"/>
<path d="M99.3699 83.8913C100.099 83.8913 100.691 83.2999 100.691 82.5703C100.691 81.8407 100.099 81.2493 99.3699 81.2493C98.6403 81.2493 98.0488 81.8407 98.0488 82.5703C98.0488 83.2999 98.6403 83.8913 99.3699 83.8913Z" fill="#6B6E75"/>
<path d="M85.8662 82.5703C85.8662 81.8364 86.4533 81.2493 87.1872 81.2493C87.9211 81.2493 88.5082 81.8364 88.5082 82.5703C88.5082 83.3042 87.9211 83.8913 87.1872 83.8913C86.4533 83.8913 85.8662 83.3042 85.8662 82.5703Z" fill="#6B6E75"/>
<path d="M73.5366 82.5703C73.5366 81.8364 74.1238 81.2493 74.8577 81.2493C75.5916 81.2493 76.1787 81.8364 76.1787 82.5703C76.1787 83.3042 75.5916 83.8913 74.8577 83.8913C74.1238 83.8913 73.5366 83.3042 73.5366 82.5703Z" fill="#6B6E75"/>
<path d="M61.354 82.5703C61.354 81.8364 61.9411 81.2493 62.675 81.2493C63.4089 81.2493 63.996 81.8364 63.996 82.5703C63.996 83.3042 63.4089 83.8913 62.675 83.8913C61.9411 83.8913 61.354 83.3042 61.354 82.5703Z" fill="#6B6E75"/>
<path d="M49.0244 82.5703C49.0244 81.8364 49.6115 81.2493 50.3454 81.2493C51.0793 81.2493 51.6665 81.8364 51.6665 82.5703C51.6665 83.3042 51.0793 83.8913 50.3454 83.8913C49.6115 83.8913 49.0244 83.3042 49.0244 82.5703Z" fill="#6B6E75"/>
<path d="M36.8418 82.5703C36.8418 81.8364 37.4289 81.2493 38.1628 81.2493C38.8967 81.2493 39.4838 81.8364 39.4838 82.5703C39.4838 83.3042 38.8967 83.8913 38.1628 83.8913C37.4289 83.8913 36.8418 83.3042 36.8418 82.5703Z" fill="#6B6E75"/>
<path d="M24.5122 82.5703C24.5122 81.8364 25.0993 81.2493 25.8332 81.2493C26.5671 81.2493 27.1542 81.8364 27.1542 82.5703C27.1542 83.3042 26.5671 83.8913 25.8332 83.8913C25.0993 83.8913 24.5122 83.3042 24.5122 82.5703Z" fill="#6B6E75"/>
<path d="M12.3296 82.5703C12.3296 81.8364 12.9167 81.2493 13.6506 81.2493C14.3845 81.2493 14.9716 81.8364 14.9716 82.5703C14.9716 83.3042 14.3845 83.8913 13.6506 83.8913C12.9167 83.8913 12.3296 83.3042 12.3296 82.5703Z" fill="#6B6E75"/>
<path d="M0 82.5703C0 81.8364 0.58711 81.2493 1.32101 81.2493C2.05491 81.2493 2.64202 81.8364 2.64202 82.5703C2.64202 83.3042 2.05491 83.8913 1.32101 83.8913C0.58711 83.8913 0 83.3042 0 82.5703Z" fill="#6B6E75"/>
<path d="M159.403 72.5893C159.403 71.8554 159.99 71.2683 160.724 71.2683C161.458 71.2683 162.045 71.8554 162.045 72.5893C162.045 73.3232 161.458 73.9103 160.724 73.9103C159.99 73.9103 159.403 73.3232 159.403 72.5893Z" fill="#6B6E75"/>
<path d="M147.073 72.5893C147.073 71.8554 147.66 71.2683 148.394 71.2683C149.128 71.2683 149.715 71.8554 149.715 72.5893C149.715 73.3232 149.128 73.9103 148.394 73.9103C147.66 73.9103 147.073 73.3232 147.073 72.5893Z" fill="#6B6E75"/>
<path d="M134.891 72.5893C134.891 71.8554 135.478 71.2683 136.212 71.2683C136.946 71.2683 137.533 71.8554 137.533 72.5893C137.533 73.3232 136.946 73.9103 136.212 73.9103C135.478 73.9103 134.891 73.3232 134.891 72.5893Z" fill="#6B6E75"/>
<path d="M122.561 72.5893C122.561 71.8554 123.148 71.2683 123.882 71.2683C124.616 71.2683 125.203 71.8554 125.203 72.5893C125.203 73.3232 124.616 73.9103 123.882 73.9103C123.148 73.9103 122.561 73.3232 122.561 72.5893Z" fill="#6B6E75"/>
<path d="M110.378 72.5893C110.378 71.8554 110.966 71.2683 111.699 71.2683C112.433 71.2683 113.02 71.8554 113.02 72.5893C113.02 73.3232 112.433 73.9103 111.699 73.9103C110.966 73.9103 110.378 73.3232 110.378 72.5893Z" fill="#6B6E75"/>
<path d="M98.0488 72.5893C98.0488 71.8554 98.636 71.2683 99.3699 71.2683C100.104 71.2683 100.691 71.8554 100.691 72.5893C100.691 73.3232 100.104 73.9103 99.3699 73.9103C98.636 73.9103 98.0488 73.3232 98.0488 72.5893Z" fill="#6B6E75"/>
<path d="M85.8662 72.5893C85.8662 71.8554 86.4533 71.2683 87.1872 71.2683C87.9211 71.2683 88.5082 71.8554 88.5082 72.5893C88.5082 73.3232 87.9211 73.9103 87.1872 73.9103C86.4533 73.9103 85.8662 73.3232 85.8662 72.5893Z" fill="#6B6E75"/>
<path d="M73.5366 72.5893C73.5366 71.8554 74.1238 71.2683 74.8577 71.2683C75.5916 71.2683 76.1787 71.8554 76.1787 72.5893C76.1787 73.3232 75.5916 73.9103 74.8577 73.9103C74.1238 73.9103 73.5366 73.3232 73.5366 72.5893Z" fill="#6B6E75"/>
<path d="M61.354 72.5893C61.354 71.8554 61.9411 71.2683 62.675 71.2683C63.4089 71.2683 63.996 71.8554 63.996 72.5893C63.996 73.3232 63.4089 73.9103 62.675 73.9103C61.9411 73.9103 61.354 73.3232 61.354 72.5893Z" fill="#6B6E75"/>
<path d="M49.0244 72.5893C49.0244 71.8554 49.6115 71.2683 50.3454 71.2683C51.0793 71.2683 51.6665 71.8554 51.6665 72.5893C51.6665 73.3232 51.0793 73.9103 50.3454 73.9103C49.6115 73.9103 49.0244 73.3232 49.0244 72.5893Z" fill="#6B6E75"/>
<path d="M36.8418 72.5893C36.8418 71.8554 37.4289 71.2683 38.1628 71.2683C38.8967 71.2683 39.4838 71.8554 39.4838 72.5893C39.4838 73.3232 38.8967 73.9103 38.1628 73.9103C37.4289 73.9103 36.8418 73.3232 36.8418 72.5893Z" fill="#6B6E75"/>
<path d="M24.5122 72.5893C24.5122 71.8554 25.0993 71.2683 25.8332 71.2683C26.5671 71.2683 27.1542 71.8554 27.1542 72.5893C27.1542 73.3232 26.5671 73.9103 25.8332 73.9103C25.0993 73.9103 24.5122 73.3232 24.5122 72.5893Z" fill="#6B6E75"/>
<path d="M12.3296 72.5893C12.3296 71.8554 12.9167 71.2683 13.6506 71.2683C14.3845 71.2683 14.9716 71.8554 14.9716 72.5893C14.9716 73.3232 14.3845 73.9103 13.6506 73.9103C12.9167 73.9103 12.3296 73.3232 12.3296 72.5893Z" fill="#6B6E75"/>
<path d="M0 72.5893C0 71.8554 0.58711 71.2683 1.32101 71.2683C2.05491 71.2683 2.64202 71.8554 2.64202 72.5893C2.64202 73.3232 2.05491 73.9103 1.32101 73.9103C0.58711 73.9103 0 73.3232 0 72.5893Z" fill="#6B6E75"/>
<path d="M159.403 62.4614C159.403 61.7275 159.99 61.1404 160.724 61.1404C161.458 61.1404 162.045 61.7275 162.045 62.4614C162.045 63.1953 161.458 63.7824 160.724 63.7824C159.99 63.7824 159.403 63.1953 159.403 62.4614Z" fill="#6B6E75"/>
<path d="M147.073 62.4614C147.073 61.7275 147.66 61.1404 148.394 61.1404C149.128 61.1404 149.715 61.7275 149.715 62.4614C149.715 63.1953 149.128 63.7824 148.394 63.7824C147.66 63.7824 147.073 63.1953 147.073 62.4614Z" fill="#6B6E75"/>
<path d="M134.891 62.4614C134.891 61.7275 135.478 61.1404 136.212 61.1404C136.946 61.1404 137.533 61.7275 137.533 62.4614C137.533 63.1953 136.946 63.7824 136.212 63.7824C135.478 63.7824 134.891 63.1953 134.891 62.4614Z" fill="#6B6E75"/>
<path d="M122.561 62.4614C122.561 61.7275 123.148 61.1404 123.882 61.1404C124.616 61.1404 125.203 61.7275 125.203 62.4614C125.203 63.1953 124.616 63.7824 123.882 63.7824C123.148 63.7824 122.561 63.1953 122.561 62.4614Z" fill="#6B6E75"/>
<path d="M110.378 62.4614C110.378 61.7275 110.966 61.1404 111.699 61.1404C112.433 61.1404 113.02 61.7275 113.02 62.4614C113.02 63.1953 112.433 63.7824 111.699 63.7824C110.966 63.7824 110.378 63.1953 110.378 62.4614Z" fill="#6B6E75"/>
<path d="M98.0488 62.4614C98.0488 61.7275 98.636 61.1404 99.3699 61.1404C100.104 61.1404 100.691 61.7275 100.691 62.4614C100.691 63.1953 100.104 63.7824 99.3699 63.7824C98.636 63.7824 98.0488 63.1953 98.0488 62.4614Z" fill="#6B6E75"/>
<path d="M85.8662 62.4614C85.8662 61.7275 86.4533 61.1404 87.1872 61.1404C87.9211 61.1404 88.5082 61.7275 88.5082 62.4614C88.5082 63.1953 87.9211 63.7824 87.1872 63.7824C86.4533 63.7824 85.8662 63.1953 85.8662 62.4614Z" fill="#6B6E75"/>
<path d="M73.5366 62.4614C73.5366 61.7275 74.1238 61.1404 74.8577 61.1404C75.5916 61.1404 76.1787 61.7275 76.1787 62.4614C76.1787 63.1953 75.5916 63.7824 74.8577 63.7824C74.1238 63.7824 73.5366 63.1953 73.5366 62.4614Z" fill="#6B6E75"/>
<path d="M61.354 62.4614C61.354 61.7275 61.9411 61.1404 62.675 61.1404C63.4089 61.1404 63.996 61.7275 63.996 62.4614C63.996 63.1953 63.4089 63.7824 62.675 63.7824C61.9411 63.7824 61.354 63.1953 61.354 62.4614Z" fill="#6B6E75"/>
<path d="M49.0244 62.4614C49.0244 61.7275 49.6115 61.1404 50.3454 61.1404C51.0793 61.1404 51.6665 61.7275 51.6665 62.4614C51.6665 63.1953 51.0793 63.7824 50.3454 63.7824C49.6115 63.7824 49.0244 63.1953 49.0244 62.4614Z" fill="#6B6E75"/>
<path d="M36.8418 62.4614C36.8418 61.7275 37.4289 61.1404 38.1628 61.1404C38.8967 61.1404 39.4838 61.7275 39.4838 62.4614C39.4838 63.1953 38.8967 63.7824 38.1628 63.7824C37.4289 63.7824 36.8418 63.1953 36.8418 62.4614Z" fill="#6B6E75"/>
<path d="M24.5122 62.4614C24.5122 61.7275 25.0993 61.1404 25.8332 61.1404C26.5671 61.1404 27.1542 61.7275 27.1542 62.4614C27.1542 63.1953 26.5671 63.7824 25.8332 63.7824C25.0993 63.7824 24.5122 63.1953 24.5122 62.4614Z" fill="#6B6E75"/>
<path d="M12.3296 62.4614C12.3296 61.7275 12.9167 61.1404 13.6506 61.1404C14.3845 61.1404 14.9716 61.7275 14.9716 62.4614C14.9716 63.1953 14.3845 63.7824 13.6506 63.7824C12.9167 63.7824 12.3296 63.1953 12.3296 62.4614Z" fill="#6B6E75"/>
<path d="M0 62.4614C0 61.7275 0.58711 61.1404 1.32101 61.1404C2.05491 61.1404 2.64202 61.7275 2.64202 62.4614C2.64202 63.1953 2.05491 63.7824 1.32101 63.7824C0.58711 63.7824 0 63.1953 0 62.4614Z" fill="#6B6E75"/>
<path d="M159.403 52.4804C159.403 51.7465 159.99 51.1594 160.724 51.1594C161.458 51.1594 162.045 51.7465 162.045 52.4804C162.045 53.2143 161.458 53.8015 160.724 53.8015C159.99 53.8015 159.403 53.2143 159.403 52.4804Z" fill="#6B6E75"/>
<path d="M147.073 52.4804C147.073 51.7465 147.66 51.1594 148.394 51.1594C149.128 51.1594 149.715 51.7465 149.715 52.4804C149.715 53.2143 149.128 53.8015 148.394 53.8015C147.66 53.8015 147.073 53.2143 147.073 52.4804Z" fill="#6B6E75"/>
<path d="M134.891 52.4804C134.891 51.7465 135.478 51.1594 136.212 51.1594C136.946 51.1594 137.533 51.7465 137.533 52.4804C137.533 53.2143 136.946 53.8015 136.212 53.8015C135.478 53.8015 134.891 53.2143 134.891 52.4804Z" fill="#6B6E75"/>
<path d="M122.561 52.4804C122.561 51.7465 123.148 51.1594 123.882 51.1594C124.616 51.1594 125.203 51.7465 125.203 52.4804C125.203 53.2143 124.616 53.8015 123.882 53.8015C123.148 53.8015 122.561 53.2143 122.561 52.4804Z" fill="#6B6E75"/>
<path d="M110.378 52.4804C110.378 51.7465 110.966 51.1594 111.699 51.1594C112.433 51.1594 113.02 51.7465 113.02 52.4804C113.02 53.2143 112.433 53.8015 111.699 53.8015C110.966 53.8015 110.378 53.2143 110.378 52.4804Z" fill="#6B6E75"/>
<path d="M98.0488 52.4804C98.0488 51.7465 98.636 51.1594 99.3699 51.1594C100.104 51.1594 100.691 51.7465 100.691 52.4804C100.691 53.2143 100.104 53.8015 99.3699 53.8015C98.636 53.8015 98.0488 53.2143 98.0488 52.4804Z" fill="#6B6E75"/>
<path d="M85.8662 52.4804C85.8662 51.7465 86.4533 51.1594 87.1872 51.1594C87.9211 51.1594 88.5082 51.7465 88.5082 52.4804C88.5082 53.2143 87.9211 53.8015 87.1872 53.8015C86.4533 53.8015 85.8662 53.2143 85.8662 52.4804Z" fill="#6B6E75"/>
<path d="M73.5366 52.4804C73.5366 51.7465 74.1238 51.1594 74.8577 51.1594C75.5916 51.1594 76.1787 51.7465 76.1787 52.4804C76.1787 53.2143 75.5916 53.8015 74.8577 53.8015C74.1238 53.8015 73.5366 53.2143 73.5366 52.4804Z" fill="#6B6E75"/>
<path d="M61.354 52.4804C61.354 51.7465 61.9411 51.1594 62.675 51.1594C63.4089 51.1594 63.996 51.7465 63.996 52.4804C63.996 53.2143 63.4089 53.8015 62.675 53.8015C61.9411 53.8015 61.354 53.2143 61.354 52.4804Z" fill="#6B6E75"/>
<path d="M49.0244 52.4804C49.0244 51.7465 49.6115 51.1594 50.3454 51.1594C51.0793 51.1594 51.6665 51.7465 51.6665 52.4804C51.6665 53.2143 51.0793 53.8015 50.3454 53.8015C49.6115 53.8015 49.0244 53.2143 49.0244 52.4804Z" fill="#6B6E75"/>
<path d="M36.8418 52.4804C36.8418 51.7465 37.4289 51.1594 38.1628 51.1594C38.8967 51.1594 39.4838 51.7465 39.4838 52.4804C39.4838 53.2143 38.8967 53.8015 38.1628 53.8015C37.4289 53.8015 36.8418 53.2143 36.8418 52.4804Z" fill="#6B6E75"/>
<path d="M24.5122 52.4804C24.5122 51.7465 25.0993 51.1594 25.8332 51.1594C26.5671 51.1594 27.1542 51.7465 27.1542 52.4804C27.1542 53.2143 26.5671 53.8015 25.8332 53.8015C25.0993 53.8015 24.5122 53.2143 24.5122 52.4804Z" fill="#6B6E75"/>
<path d="M12.3296 52.4804C12.3296 51.7465 12.9167 51.1594 13.6506 51.1594C14.3845 51.1594 14.9716 51.7465 14.9716 52.4804C14.9716 53.2143 14.3845 53.8015 13.6506 53.8015C12.9167 53.8015 12.3296 53.2143 12.3296 52.4804Z" fill="#6B6E75"/>
<path d="M0 52.4804C0 51.7465 0.58711 51.1594 1.32101 51.1594C2.05491 51.1594 2.64202 51.7465 2.64202 52.4804C2.64202 53.2143 2.05491 53.8015 1.32101 53.8015C0.58711 53.8015 0 53.2143 0 52.4804Z" fill="#6B6E75"/>
<path d="M159.403 42.3525C159.403 41.6186 159.99 41.0315 160.724 41.0315C161.458 41.0315 162.045 41.6186 162.045 42.3525C162.045 43.0864 161.458 43.6735 160.724 43.6735C159.99 43.6735 159.403 43.0864 159.403 42.3525Z" fill="#6B6E75"/>
<path d="M147.073 42.3525C147.073 41.6186 147.66 41.0315 148.394 41.0315C149.128 41.0315 149.715 41.6186 149.715 42.3525C149.715 43.0864 149.128 43.6735 148.394 43.6735C147.66 43.6735 147.073 43.0864 147.073 42.3525Z" fill="#6B6E75"/>
<path d="M134.891 42.3525C134.891 41.6186 135.478 41.0315 136.212 41.0315C136.946 41.0315 137.533 41.6186 137.533 42.3525C137.533 43.0864 136.946 43.6735 136.212 43.6735C135.478 43.6735 134.891 43.0864 134.891 42.3525Z" fill="#6B6E75"/>
<path d="M122.561 42.3525C122.561 41.6186 123.148 41.0315 123.882 41.0315C124.616 41.0315 125.203 41.6186 125.203 42.3525C125.203 43.0864 124.616 43.6735 123.882 43.6735C123.148 43.6735 122.561 43.0864 122.561 42.3525Z" fill="#6B6E75"/>
<path d="M110.378 42.3525C110.378 41.6186 110.966 41.0315 111.699 41.0315C112.433 41.0315 113.02 41.6186 113.02 42.3525C113.02 43.0864 112.433 43.6735 111.699 43.6735C110.966 43.6735 110.378 43.0864 110.378 42.3525Z" fill="#6B6E75"/>
<path d="M98.0488 42.3525C98.0488 41.6186 98.636 41.0315 99.3699 41.0315C100.104 41.0315 100.691 41.6186 100.691 42.3525C100.691 43.0864 100.104 43.6735 99.3699 43.6735C98.636 43.6735 98.0488 43.0864 98.0488 42.3525Z" fill="#6B6E75"/>
<path d="M85.8662 42.3525C85.8662 41.6186 86.4533 41.0315 87.1872 41.0315C87.9211 41.0315 88.5082 41.6186 88.5082 42.3525C88.5082 43.0864 87.9211 43.6735 87.1872 43.6735C86.4533 43.6735 85.8662 43.0864 85.8662 42.3525Z" fill="#6B6E75"/>
<path d="M73.5366 42.3525C73.5366 41.6186 74.1238 41.0315 74.8577 41.0315C75.5916 41.0315 76.1787 41.6186 76.1787 42.3525C76.1787 43.0864 75.5916 43.6735 74.8577 43.6735C74.1238 43.6735 73.5366 43.0864 73.5366 42.3525Z" fill="#6B6E75"/>
<path d="M61.354 42.3525C61.354 41.6186 61.9411 41.0315 62.675 41.0315C63.4089 41.0315 63.996 41.6186 63.996 42.3525C63.996 43.0864 63.4089 43.6735 62.675 43.6735C61.9411 43.6735 61.354 43.0864 61.354 42.3525Z" fill="#6B6E75"/>
<path d="M49.0244 42.3525C49.0244 41.6186 49.6115 41.0315 50.3454 41.0315C51.0793 41.0315 51.6665 41.6186 51.6665 42.3525C51.6665 43.0864 51.0793 43.6735 50.3454 43.6735C49.6115 43.6735 49.0244 43.0864 49.0244 42.3525Z" fill="#6B6E75"/>
<path d="M36.8418 42.3525C36.8418 41.6186 37.4289 41.0315 38.1628 41.0315C38.8967 41.0315 39.4838 41.6186 39.4838 42.3525C39.4838 43.0864 38.8967 43.6735 38.1628 43.6735C37.4289 43.6735 36.8418 43.0864 36.8418 42.3525Z" fill="#6B6E75"/>
<path d="M24.5122 42.3525C24.5122 41.6186 25.0993 41.0315 25.8332 41.0315C26.5671 41.0315 27.1542 41.6186 27.1542 42.3525C27.1542 43.0864 26.5671 43.6735 25.8332 43.6735C25.0993 43.6735 24.5122 43.0864 24.5122 42.3525Z" fill="#6B6E75"/>
<path d="M12.3296 42.3525C12.3296 41.6186 12.9167 41.0315 13.6506 41.0315C14.3845 41.0315 14.9716 41.6186 14.9716 42.3525C14.9716 43.0864 14.3845 43.6735 13.6506 43.6735C12.9167 43.6735 12.3296 43.0864 12.3296 42.3525Z" fill="#6B6E75"/>
<path d="M0 42.3525C0 41.6186 0.58711 41.0315 1.32101 41.0315C2.05491 41.0315 2.64202 41.6186 2.64202 42.3525C2.64202 43.0864 2.05491 43.6735 1.32101 43.6735C0.58711 43.6735 0 43.0864 0 42.3525Z" fill="#6B6E75"/>
<path d="M159.403 32.3716C159.403 31.6377 159.99 31.0505 160.724 31.0505C161.458 31.0505 162.045 31.6377 162.045 32.3716C162.045 33.1055 161.458 33.6926 160.724 33.6926C159.99 33.6926 159.403 33.1055 159.403 32.3716Z" fill="#6B6E75"/>
<path d="M147.073 32.3716C147.073 31.6377 147.66 31.0505 148.394 31.0505C149.128 31.0505 149.715 31.6377 149.715 32.3716C149.715 33.1055 149.128 33.6926 148.394 33.6926C147.66 33.6926 147.073 33.1055 147.073 32.3716Z" fill="#6B6E75"/>
<path d="M134.891 32.3716C134.891 31.6377 135.478 31.0505 136.212 31.0505C136.946 31.0505 137.533 31.6377 137.533 32.3716C137.533 33.1055 136.946 33.6926 136.212 33.6926C135.478 33.6926 134.891 33.1055 134.891 32.3716Z" fill="#6B6E75"/>
<path d="M122.561 32.3716C122.561 31.6377 123.148 31.0505 123.882 31.0505C124.616 31.0505 125.203 31.6377 125.203 32.3716C125.203 33.1055 124.616 33.6926 123.882 33.6926C123.148 33.6926 122.561 33.1055 122.561 32.3716Z" fill="#6B6E75"/>
<path d="M110.378 32.3716C110.378 31.6377 110.966 31.0505 111.699 31.0505C112.433 31.0505 113.02 31.6377 113.02 32.3716C113.02 33.1055 112.433 33.6926 111.699 33.6926C110.966 33.6926 110.378 33.1055 110.378 32.3716Z" fill="#6B6E75"/>
<path d="M98.0488 32.3716C98.0488 31.6377 98.636 31.0505 99.3699 31.0505C100.104 31.0505 100.691 31.6377 100.691 32.3716C100.691 33.1055 100.104 33.6926 99.3699 33.6926C98.636 33.6926 98.0488 33.1055 98.0488 32.3716Z" fill="#6B6E75"/>
<path d="M85.8662 32.3716C85.8662 31.6377 86.4533 31.0505 87.1872 31.0505C87.9211 31.0505 88.5082 31.6377 88.5082 32.3716C88.5082 33.1055 87.9211 33.6926 87.1872 33.6926C86.4533 33.6926 85.8662 33.1055 85.8662 32.3716Z" fill="#6B6E75"/>
<path d="M73.5366 32.3716C73.5366 31.6377 74.1238 31.0505 74.8577 31.0505C75.5916 31.0505 76.1787 31.6377 76.1787 32.3716C76.1787 33.1055 75.5916 33.6926 74.8577 33.6926C74.1238 33.6926 73.5366 33.1055 73.5366 32.3716Z" fill="#6B6E75"/>
<path d="M61.354 32.3716C61.354 31.6377 61.9411 31.0505 62.675 31.0505C63.4089 31.0505 63.996 31.6377 63.996 32.3716C63.996 33.1055 63.4089 33.6926 62.675 33.6926C61.9411 33.6926 61.354 33.1055 61.354 32.3716Z" fill="#6B6E75"/>
<path d="M49.0244 32.3716C49.0244 31.6377 49.6115 31.0505 50.3454 31.0505C51.0793 31.0505 51.6665 31.6377 51.6665 32.3716C51.6665 33.1055 51.0793 33.6926 50.3454 33.6926C49.6115 33.6926 49.0244 33.1055 49.0244 32.3716Z" fill="#6B6E75"/>
<path d="M36.8418 32.3716C36.8418 31.6377 37.4289 31.0505 38.1628 31.0505C38.8967 31.0505 39.4838 31.6377 39.4838 32.3716C39.4838 33.1055 38.8967 33.6926 38.1628 33.6926C37.4289 33.6926 36.8418 33.1055 36.8418 32.3716Z" fill="#6B6E75"/>
<path d="M24.5122 32.3716C24.5122 31.6377 25.0993 31.0505 25.8332 31.0505C26.5671 31.0505 27.1542 31.6377 27.1542 32.3716C27.1542 33.1055 26.5671 33.6926 25.8332 33.6926C25.0993 33.6926 24.5122 33.1055 24.5122 32.3716Z" fill="#6B6E75"/>
<path d="M12.3296 32.3716C12.3296 31.6377 12.9167 31.0505 13.6506 31.0505C14.3845 31.0505 14.9716 31.6377 14.9716 32.3716C14.9716 33.1055 14.3845 33.6926 13.6506 33.6926C12.9167 33.6926 12.3296 33.1055 12.3296 32.3716Z" fill="#6B6E75"/>
<path d="M0 32.3716C0 31.6377 0.58711 31.0505 1.32101 31.0505C2.05491 31.0505 2.64202 31.6377 2.64202 32.3716C2.64202 33.1055 2.05491 33.6926 1.32101 33.6926C0.58711 33.6926 0 33.1055 0 32.3716Z" fill="#6B6E75"/>
<path d="M159.403 22.2436C159.403 21.5097 159.99 20.9226 160.724 20.9226C161.458 20.9226 162.045 21.5097 162.045 22.2436C162.045 22.9775 161.458 23.5646 160.724 23.5646C159.99 23.5646 159.403 22.9775 159.403 22.2436Z" fill="#6B6E75"/>
<path d="M147.073 22.2436C147.073 21.5097 147.66 20.9226 148.394 20.9226C149.128 20.9226 149.715 21.5097 149.715 22.2436C149.715 22.9775 149.128 23.5646 148.394 23.5646C147.66 23.5646 147.073 22.9775 147.073 22.2436Z" fill="#6B6E75"/>
<path d="M134.891 22.2436C134.891 21.5097 135.478 20.9226 136.212 20.9226C136.946 20.9226 137.533 21.5097 137.533 22.2436C137.533 22.9775 136.946 23.5646 136.212 23.5646C135.478 23.5646 134.891 22.9775 134.891 22.2436Z" fill="#6B6E75"/>
<path d="M122.561 22.2436C122.561 21.5097 123.148 20.9226 123.882 20.9226C124.616 20.9226 125.203 21.5097 125.203 22.2436C125.203 22.9775 124.616 23.5646 123.882 23.5646C123.148 23.5646 122.561 22.9775 122.561 22.2436Z" fill="#6B6E75"/>
<path d="M110.378 22.2436C110.378 21.5097 110.966 20.9226 111.699 20.9226C112.433 20.9226 113.02 21.5097 113.02 22.2436C113.02 22.9775 112.433 23.5646 111.699 23.5646C110.966 23.5646 110.378 22.9775 110.378 22.2436Z" fill="#6B6E75"/>
<path d="M98.0488 22.2436C98.0488 21.5097 98.636 20.9226 99.3699 20.9226C100.104 20.9226 100.691 21.5097 100.691 22.2436C100.691 22.9775 100.104 23.5646 99.3699 23.5646C98.636 23.5646 98.0488 22.9775 98.0488 22.2436Z" fill="#6B6E75"/>
<path d="M85.8662 22.2436C85.8662 21.5097 86.4533 20.9226 87.1872 20.9226C87.9211 20.9226 88.5082 21.5097 88.5082 22.2436C88.5082 22.9775 87.9211 23.5646 87.1872 23.5646C86.4533 23.5646 85.8662 22.9775 85.8662 22.2436Z" fill="#6B6E75"/>
<path d="M73.5366 22.2436C73.5366 21.5097 74.1238 20.9226 74.8577 20.9226C75.5916 20.9226 76.1787 21.5097 76.1787 22.2436C76.1787 22.9775 75.5916 23.5646 74.8577 23.5646C74.1238 23.5646 73.5366 22.9775 73.5366 22.2436Z" fill="#6B6E75"/>
<path d="M61.354 22.2436C61.354 21.5097 61.9411 20.9226 62.675 20.9226C63.4089 20.9226 63.996 21.5097 63.996 22.2436C63.996 22.9775 63.4089 23.5646 62.675 23.5646C61.9411 23.5646 61.354 22.9775 61.354 22.2436Z" fill="#6B6E75"/>
<path d="M49.0244 22.2436C49.0244 21.5097 49.6115 20.9226 50.3454 20.9226C51.0793 20.9226 51.6665 21.5097 51.6665 22.2436C51.6665 22.9775 51.0793 23.5646 50.3454 23.5646C49.6115 23.5646 49.0244 22.9775 49.0244 22.2436Z" fill="#6B6E75"/>
<path d="M36.8418 22.2436C36.8418 21.5097 37.4289 20.9226 38.1628 20.9226C38.8967 20.9226 39.4838 21.5097 39.4838 22.2436C39.4838 22.9775 38.8967 23.5646 38.1628 23.5646C37.4289 23.5646 36.8418 22.9775 36.8418 22.2436Z" fill="#6B6E75"/>
<path d="M24.5122 22.2436C24.5122 21.5097 25.0993 20.9226 25.8332 20.9226C26.5671 20.9226 27.1542 21.5097 27.1542 22.2436C27.1542 22.9775 26.5671 23.5646 25.8332 23.5646C25.0993 23.5646 24.5122 22.9775 24.5122 22.2436Z" fill="#6B6E75"/>
<path d="M12.3296 22.2436C12.3296 21.5097 12.9167 20.9226 13.6506 20.9226C14.3845 20.9226 14.9716 21.5097 14.9716 22.2436C14.9716 22.9775 14.3845 23.5646 13.6506 23.5646C12.9167 23.5646 12.3296 22.9775 12.3296 22.2436Z" fill="#6B6E75"/>
<path d="M0 22.2436C0 21.5097 0.58711 20.9226 1.32101 20.9226C2.05491 20.9226 2.64202 21.5097 2.64202 22.2436C2.64202 22.9775 2.05491 23.5646 1.32101 23.5646C0.58711 23.5646 0 22.9775 0 22.2436Z" fill="#6B6E75"/>
<path d="M159.403 12.2627C159.403 11.5288 159.99 10.9417 160.724 10.9417C161.458 10.9417 162.045 11.5288 162.045 12.2627C162.045 12.9966 161.458 13.5837 160.724 13.5837C159.99 13.5837 159.403 12.9966 159.403 12.2627Z" fill="#6B6E75"/>
<path d="M147.073 12.2627C147.073 11.5288 147.66 10.9417 148.394 10.9417C149.128 10.9417 149.715 11.5288 149.715 12.2627C149.715 12.9966 149.128 13.5837 148.394 13.5837C147.66 13.5837 147.073 12.9966 147.073 12.2627Z" fill="#6B6E75"/>
<path d="M134.891 12.2627C134.891 11.5288 135.478 10.9417 136.212 10.9417C136.946 10.9417 137.533 11.5288 137.533 12.2627C137.533 12.9966 136.946 13.5837 136.212 13.5837C135.478 13.5837 134.891 12.9966 134.891 12.2627Z" fill="#6B6E75"/>
<path d="M122.561 12.2627C122.561 11.5288 123.148 10.9417 123.882 10.9417C124.616 10.9417 125.203 11.5288 125.203 12.2627C125.203 12.9966 124.616 13.5837 123.882 13.5837C123.148 13.5837 122.561 12.9966 122.561 12.2627Z" fill="#6B6E75"/>
<path d="M110.378 12.2627C110.378 11.5288 110.966 10.9417 111.699 10.9417C112.433 10.9417 113.02 11.5288 113.02 12.2627C113.02 12.9966 112.433 13.5837 111.699 13.5837C110.966 13.5837 110.378 12.9966 110.378 12.2627Z" fill="#6B6E75"/>
<path d="M98.0488 12.2627C98.0488 11.5288 98.636 10.9417 99.3699 10.9417C100.104 10.9417 100.691 11.5288 100.691 12.2627C100.691 12.9966 100.104 13.5837 99.3699 13.5837C98.636 13.5837 98.0488 12.9966 98.0488 12.2627Z" fill="#6B6E75"/>
<path d="M85.8662 12.2627C85.8662 11.5288 86.4533 10.9417 87.1872 10.9417C87.9211 10.9417 88.5082 11.5288 88.5082 12.2627C88.5082 12.9966 87.9211 13.5837 87.1872 13.5837C86.4533 13.5837 85.8662 12.9966 85.8662 12.2627Z" fill="#6B6E75"/>
<path d="M73.5366 12.2627C73.5366 11.5288 74.1238 10.9417 74.8577 10.9417C75.5916 10.9417 76.1787 11.5288 76.1787 12.2627C76.1787 12.9966 75.5916 13.5837 74.8577 13.5837C74.1238 13.5837 73.5366 12.9966 73.5366 12.2627Z" fill="#6B6E75"/>
<path d="M61.354 12.2627C61.354 11.5288 61.9411 10.9417 62.675 10.9417C63.4089 10.9417 63.996 11.5288 63.996 12.2627C63.996 12.9966 63.4089 13.5837 62.675 13.5837C61.9411 13.5837 61.354 12.9966 61.354 12.2627Z" fill="#6B6E75"/>
<path d="M49.0244 12.2627C49.0244 11.5288 49.6115 10.9417 50.3454 10.9417C51.0793 10.9417 51.6665 11.5288 51.6665 12.2627C51.6665 12.9966 51.0793 13.5837 50.3454 13.5837C49.6115 13.5837 49.0244 12.9966 49.0244 12.2627Z" fill="#6B6E75"/>
<path d="M36.8418 12.2627C36.8418 11.5288 37.4289 10.9417 38.1628 10.9417C38.8967 10.9417 39.4838 11.5288 39.4838 12.2627C39.4838 12.9966 38.8967 13.5837 38.1628 13.5837C37.4289 13.5837 36.8418 12.9966 36.8418 12.2627Z" fill="#6B6E75"/>
<path d="M24.5122 12.2627C24.5122 11.5288 25.0993 10.9417 25.8332 10.9417C26.5671 10.9417 27.1542 11.5288 27.1542 12.2627C27.1542 12.9966 26.5671 13.5837 25.8332 13.5837C25.0993 13.5837 24.5122 12.9966 24.5122 12.2627Z" fill="#6B6E75"/>
<path d="M12.3296 12.2627C12.3296 11.5288 12.9167 10.9417 13.6506 10.9417C14.3845 10.9417 14.9716 11.5288 14.9716 12.2627C14.9716 12.9966 14.3845 13.5837 13.6506 13.5837C12.9167 13.5837 12.3296 12.9966 12.3296 12.2627Z" fill="#6B6E75"/>
<path d="M0 12.2627C0 11.5288 0.58711 10.9417 1.32101 10.9417C2.05491 10.9417 2.64202 11.5288 2.64202 12.2627C2.64202 12.9966 2.05491 13.5837 1.32101 13.5837C0.58711 13.5837 0 12.9966 0 12.2627Z" fill="#6B6E75"/>
<path d="M159.403 2.28171C159.403 1.54781 159.99 0.960693 160.724 0.960693C161.458 0.960693 162.045 1.54781 162.045 2.28171C162.045 3.01561 161.458 3.60273 160.724 3.60273C159.99 3.45595 159.403 2.86883 159.403 2.28171Z" fill="#6B6E75"/>
<path d="M147.073 2.28171C147.073 1.54781 147.66 0.960693 148.394 0.960693C149.128 0.960693 149.715 1.54781 149.715 2.28171C149.715 3.01561 149.128 3.60273 148.394 3.60273C147.66 3.45595 147.073 2.86883 147.073 2.28171Z" fill="#6B6E75"/>
<path d="M134.891 2.28171C134.891 1.54781 135.478 0.960693 136.212 0.960693C136.946 0.960693 137.533 1.54781 137.533 2.28171C137.533 3.01561 136.946 3.60273 136.212 3.60273C135.478 3.45595 134.891 2.86883 134.891 2.28171Z" fill="#6B6E75"/>
<path d="M122.561 2.28171C122.561 1.54781 123.148 0.960693 123.882 0.960693C124.616 0.960693 125.203 1.54781 125.203 2.28171C125.203 3.01561 124.616 3.60273 123.882 3.60273C123.148 3.45595 122.561 2.86883 122.561 2.28171Z" fill="#6B6E75"/>
<path d="M110.378 2.28171C110.378 1.54781 110.966 0.960693 111.699 0.960693C112.433 0.960693 113.02 1.54781 113.02 2.28171C113.02 3.01561 112.433 3.60273 111.699 3.60273C110.966 3.45595 110.378 2.86883 110.378 2.28171Z" fill="#6B6E75"/>
<path d="M98.0488 2.28171C98.0488 1.54781 98.636 0.960693 99.3699 0.960693C100.104 0.960693 100.691 1.54781 100.691 2.28171C100.691 3.01561 100.104 3.60273 99.3699 3.60273C98.636 3.45595 98.0488 2.86883 98.0488 2.28171Z" fill="#6B6E75"/>
<path d="M85.8662 2.28171C85.8662 1.54781 86.4533 0.960693 87.1872 0.960693C87.9211 0.960693 88.5082 1.54781 88.5082 2.28171C88.5082 3.01561 87.9211 3.60273 87.1872 3.60273C86.4533 3.45595 85.8662 2.86883 85.8662 2.28171Z" fill="#6B6E75"/>
<path d="M73.5366 2.28171C73.5366 1.54781 74.1238 0.960693 74.8577 0.960693C75.5916 0.960693 76.1787 1.54781 76.1787 2.28171C76.1787 3.01561 75.5916 3.60273 74.8577 3.60273C74.1238 3.45595 73.5366 2.86883 73.5366 2.28171Z" fill="#6B6E75"/>
<path d="M61.354 2.28171C61.354 1.54781 61.9411 0.960693 62.675 0.960693C63.4089 0.960693 63.996 1.54781 63.996 2.28171C63.996 3.01561 63.4089 3.60273 62.675 3.60273C61.9411 3.45595 61.354 2.86883 61.354 2.28171Z" fill="#6B6E75"/>
<path d="M49.0244 2.28171C49.0244 1.54781 49.6115 0.960693 50.3454 0.960693C51.0793 0.960693 51.6665 1.54781 51.6665 2.28171C51.6665 3.01561 51.0793 3.60273 50.3454 3.60273C49.6115 3.45595 49.0244 2.86883 49.0244 2.28171Z" fill="#6B6E75"/>
<path d="M36.8418 2.28171C36.8418 1.54781 37.4289 0.960693 38.1628 0.960693C38.8967 0.960693 39.4838 1.54781 39.4838 2.28171C39.4838 3.01561 38.8967 3.60273 38.1628 3.60273C37.4289 3.45595 36.8418 2.86883 36.8418 2.28171Z" fill="#6B6E75"/>
<path d="M24.5122 2.28171C24.5122 1.54781 25.0993 0.960693 25.8332 0.960693C26.5671 0.960693 27.1542 1.54781 27.1542 2.28171C27.1542 3.01561 26.5671 3.60273 25.8332 3.60273C25.0993 3.45595 24.5122 2.86883 24.5122 2.28171Z" fill="#6B6E75"/>
<path d="M12.3296 2.28171C12.3296 1.54781 12.9167 0.960693 13.6506 0.960693C14.3845 0.960693 14.9716 1.54781 14.9716 2.28171C14.9716 3.01561 14.3845 3.60273 13.6506 3.60273C12.9167 3.45595 12.3296 2.86883 12.3296 2.28171Z" fill="#6B6E75"/>
<path d="M0 2.28171C0 1.54781 0.58711 0.960693 1.32101 0.960693C2.05491 0.960693 2.64202 1.54781 2.64202 2.28171C2.64202 3.01561 2.05491 3.60273 1.32101 3.60273C0.58711 3.45595 0 2.86883 0 2.28171Z" fill="#6B6E75"/>
</svg>
