<?xml version="1.0" encoding="UTF-8"?>
<svg width="18px" height="18px" viewBox="0 0 18 18" version="1.1" xmlns="http://www.w3.org/2000/svg" xmlns:xlink="http://www.w3.org/1999/xlink">
    <title>3FC47B47-2C19-4F42-9960-4445BF936573</title>
    <g id="Page-1" stroke="none" stroke-width="1" fill="none" fill-rule="evenodd">
        <g id="D-header-variation" transform="translate(-525, -6)" fill="#FFFFFF" fill-rule="nonzero">
            <g id="Global/Icons/building-solid" transform="translate(525, 6)">
                <path d="M17.9664718,10.8488635 C17.7278762,10.2346467 16.7268962,9.65025165 15.5332742,9.42788746 C14.6742102,9.26720083 12.4931222,9.09602537 10.8067867,10.9505583 C9.672649,12.1979835 9.40297808,13.8454088 10.1511818,14.9565809 C10.1614474,14.9718543 10.1742893,14.9850626 10.1848446,15.0001273 C8.76459126,15.7029546 7.11305483,15.8812223 5.55091932,15.4575477 C6.36548676,14.8690226 6.60851205,14.2642057 6.65683642,13.8250715 C6.73085861,13.1532226 6.39425863,12.6094992 6.08335647,12.3478231 C5.71534087,12.0380022 5.24018872,12.0047697 4.85864782,11.9783389 C4.45413722,11.9505286 4.25507412,11.9220665 4.17971318,11.7817341 C4.11314131,11.6590137 4.12699569,11.6054637 4.23344318,11.3634337 C4.37369411,11.0447969 4.5855794,10.5634423 4.31860567,9.73701719 C4.21553881,9.41770896 4.31117224,9.27229572 4.46967066,9.03128128 C4.63053721,8.78687589 4.85121438,8.45231119 4.74543345,7.9397722 C4.69069096,7.67401395 4.51226034,7.31097032 3.97458914,7.09063731 C3.18556483,6.76695639 1.95876086,6.89725139 0.923707505,7.3603197 C1.08538124,6.76724696 1.33022622,6.19321942 1.65903557,5.65399007 C2.95096859,3.52763919 5.26048091,2.39620035 7.58144291,2.50175155 C7.48416136,2.9229097 7.66379009,3.35846389 7.80719946,3.70595766 C7.91974164,3.97951622 8.03666288,4.26221513 7.99982475,4.45780715 C7.96367288,4.64864563 7.7477179,4.8106751 7.51894073,4.98220884 C7.20058826,5.22151934 6.80419735,5.51880329 6.79777641,6.03370072 C6.79439579,6.29980314 6.87279422,6.51607377 7.03028014,6.67674348 C7.33002512,6.98182776 7.81937196,6.98284335 8.29249911,6.98386177 C8.5550769,6.98453319 8.82644656,6.98522153 9.04746405,7.03639616 C9.25428684,7.08181858 9.39757527,7.26792326 9.56451963,7.48317548 C9.7598393,7.73536426 9.98152897,8.0211297 10.3559796,8.07467968 C10.4276167,8.08485537 10.495218,8.08959198 10.5587496,8.08959198 C11.1258114,8.08959198 11.3853517,7.7082451 11.5975801,7.3953746 C11.719907,7.21504187 11.8469757,7.02859302 12.0382594,6.88216418 C12.0382594,6.88182001 12.0382594,6.88182001 12.0382594,6.88182001 C12.1774979,6.77470029 12.4349935,6.72080613 12.6837366,6.66861591 C12.8939906,6.62448273 13.118324,6.57573706 13.3162875,6.48563135 C13.5409443,7.01093015 13.7004721,7.5683076 13.7839724,8.14787858 C13.8120918,8.33689181 13.9864696,8.46949447 14.174924,8.44128918 C14.3633586,8.41306697 14.4955433,8.23815638 14.4674239,8.04914315 C14.158049,5.89095342 12.9148875,4.0007788 11.0614192,2.86668814 C7.63572416,0.770576553 3.15530233,1.85953819 1.06557281,5.29287606 C0.0558713243,6.95453932 -0.250705214,8.91242017 0.2077435,10.8054018 C0.663376901,12.6984003 1.82777993,14.300815 3.48438168,15.3164395 C4.66565971,16.0358295 5.97067367,16.38 7.26164763,16.38 C8.44510534,16.38 9.61577744,16.0884852 10.6636699,15.5360475 C11.238902,16.0394602 12.0006844,16.3314603 12.7695712,16.3314603 C12.9040706,16.3314603 13.03857,16.3226444 13.1724,16.3043411 C13.9848046,16.193159 15.4731232,15.6324922 16.3145894,13.117973 C16.6964734,11.9776477 17.2797578,11.6624047 17.593374,11.4935877 C17.7609877,11.403434 18.1090739,11.2149568 17.9664718,10.8488635 L17.9664718,10.8488635 Z M12.6659942,5.96176732 C12.3538136,6.0273562 11.9992814,6.10146493 11.7321784,6.30574222 C11.449373,6.52195639 11.2745003,6.77882816 11.1337727,6.98515226 C10.9035551,7.32366047 10.8318311,7.41144017 10.5551657,7.37078542 C10.4568067,7.35678183 10.3311079,7.19487634 10.2095165,7.03809072 C10.0004817,6.76926501 9.74021516,6.43417668 9.28800055,6.33476996 C8.99152234,6.26645769 8.67694828,6.2657811 8.37295714,6.26474064 C8.08536199,6.26406405 7.69189497,6.26338747 7.59386862,6.16398075 C7.56484019,6.13425652 7.55937676,6.06696765 7.56,6.01572919 C7.56209995,5.85314711 7.73082979,5.71547926 8.00851854,5.50745517 C8.30602007,5.28508067 8.67592495,5.0084117 8.76267479,4.54863571 C8.83849492,4.14693225 8.67285496,3.74660187 8.52700789,3.39374609 C8.34439774,2.95251647 8.26644284,2.71107253 8.37099576,2.52 C9.20916161,2.65046422 10.0355279,2.94353041 10.8030812,3.41246872 C11.792279,4.01563794 12.589327,4.85365868 13.14,5.8364912 C13.0116234,5.88937849 12.8263953,5.92846971 12.6659942,5.96176732 Z M0.78353365,8.17642151 C1.80597248,7.56338444 3.14766068,7.42241939 3.8065967,7.68775508 C4.01667761,7.77179318 4.13864561,7.8883658 4.16939498,8.03442424 C4.21604959,8.25469218 4.14417262,8.3743135 3.99006631,8.6030676 C3.80141765,8.88365243 3.54261453,9.2679354 3.75304339,9.90502082 C3.94272729,10.4790847 3.8207593,10.7494997 3.69187535,11.036196 C3.57197783,11.302547 3.42305058,11.633293 3.66147394,12.0656896 C3.93237206,12.5563866 4.4855559,12.5936733 4.9295684,12.6241603 C5.26196814,12.646539 5.57570776,12.6675387 5.77578427,12.8322419 C5.92365903,12.954235 6.16173444,13.2748083 6.11371101,13.7018013 C6.057052,14.2045662 5.61425302,14.6930775 4.82990685,15.12 C4.52824211,14.9949074 4.23187719,14.8484682 3.94412774,14.6763477 C2.40850542,13.7569205 1.33297338,12.3100961 0.910252225,10.5953528 C0.716039171,9.80883304 0.67233498,9.01007622 0.770820383,8.23028847 C0.775809643,8.21231213 0.778354597,8.19440912 0.78353365,8.17642151 L0.78353365,8.17642151 Z M15.7269921,12.9338794 C15.1851897,14.5261187 14.2593935,15.4868712 13.1197571,15.6400158 C12.4294969,15.7316572 11.6998457,15.5027586 11.1692706,15.0634655 C11.7976651,13.8497208 12.5725897,12.9078851 13.479141,12.2700056 C13.636273,12.1593605 13.6731678,11.9434661 13.5611187,11.7882832 C13.4490668,11.6331004 13.2304358,11.5973557 13.0732839,11.7073186 C12.1379804,12.3654876 11.3344572,13.302677 10.6781577,14.4968705 C10.1959295,13.665767 10.4608431,12.4127458 11.3385512,11.4624118 C12.3845874,10.3302999 13.6554156,10.08 14.5723242,10.08 C14.9426256,10.08 15.2555562,10.1211603 15.4721402,10.1609646 C16.3555742,10.3228798 17.0067021,10.6838277 17.28,10.9665173 C16.8864478,11.1797222 16.1724677,11.6229907 15.7269921,12.9338794 L15.7269921,12.9338794 Z" id="Shape"></path>
            </g>
        </g>
    </g>
</svg>