<?xml version="1.0" encoding="UTF-8"?>
<svg width="26px" height="25px" viewBox="0 0 26 25" version="1.1" xmlns="http://www.w3.org/2000/svg" xmlns:xlink="http://www.w3.org/1999/xlink">
    <title>Shape 2</title>
    <g id="Page-1" stroke="none" stroke-width="1" fill="none" fill-rule="evenodd">
        <g id="D-header-variation" transform="translate(-444, -111)" fill="#6B6E75" fill-rule="nonzero">
            <g id="Group-6" transform="translate(0, -0)">
                <g id="Group" transform="translate(0, 30)">
                    <g id="Group-10" transform="translate(150, 62)">
                        <path d="M314.732602,29.1547625 C314.732602,31.3956452 314.005169,33.4656544 312.779763,35.1450959 L318.960498,41.3307133 C319.57076,41.9409754 319.57076,42.9320412 318.960498,43.5423034 C318.350236,44.1525655 317.35917,44.1525655 316.748908,43.5423034 L310.568173,37.356686 C308.888731,38.5869746 306.818722,39.309525 304.577839,39.309525 C298.96831,39.309525 294.423077,34.7642923 294.423077,29.1547625 C294.423077,23.5452326 298.96831,19 304.577839,19 C310.187369,19 314.732602,23.5452326 314.732602,29.1547625 Z M304.577839,36.1849827 C308.459107,36.1849827 311.60806,33.0360299 311.60806,29.1547625 C311.60806,25.2734951 308.459107,22.1245423 304.577839,22.1245423 C300.696572,22.1245423 297.547619,25.2734951 297.547619,29.1547625 C297.547619,33.0360299 300.696572,36.1849827 304.577839,36.1849827 Z" id="Shape"></path>
                    </g>
                </g>
            </g>
        </g>
    </g>
</svg>