<?xml version="1.0" encoding="UTF-8"?>
<svg width="26px" height="25px" viewBox="0 0 26 25" version="1.1" xmlns="http://www.w3.org/2000/svg" xmlns:xlink="http://www.w3.org/1999/xlink">
    <title>Shape</title>
    <g id="Page-1" stroke="none" stroke-width="1" fill="none" fill-rule="evenodd">
        <g id="D-header-variation" transform="translate(-1257, -116)" fill="#FA7B47" fill-rule="nonzero">
            <g id="Group-6" transform="translate(0, -0)">
                <g id="Group" transform="translate(0, 30)">
                    <g id="Group-10" transform="translate(150, 62)">
                        <g id="Group-9" transform="translate(1107.4182, 13)">
                            <path d="M7.50077838,36.0025946 C6.81737413,36.0025946 6.22981316,35.7567358 5.73809546,35.2650181 C5.24637777,34.7733004 5.00051892,34.1857394 5.00051892,33.5023351 C5.00051892,32.8189309 5.24637777,32.2313699 5.73809546,31.7396522 C6.22147896,31.2479345 6.80903993,31.0020757 7.50077838,31.0020757 C8.19251683,31.0020757 8.78007781,31.2479345 9.2634613,31.7396522 C9.755179,32.2313699 10.0010378,32.8189309 10.0010378,33.5023351 C10.0010378,34.1857394 9.755179,34.7733004 9.2634613,35.2650181 C8.78007781,35.7567358 8.19251683,36.0025946 7.50077838,36.0025946 Z M20.0020757,36.0025946 C19.3186714,36.0025946 18.7311105,35.7567358 18.2393928,35.2650181 C17.7476751,34.7733004 17.5018162,34.1857394 17.5018162,33.5023351 C17.5018162,32.8189309 17.7476751,32.2313699 18.2393928,31.7396522 C18.7311105,31.2479345 19.3186714,31.0020757 20.0020757,31.0020757 C20.6854799,31.0020757 21.2730409,31.2479345 21.7647586,31.7396522 C22.2564763,32.2313699 22.5023351,32.8189309 22.5023351,33.5023351 C22.5023351,34.1857394 22.2564763,34.7733004 21.7647586,35.2650181 C21.2730409,35.7567358 20.6854799,36.0025946 20.0020757,36.0025946 Z M7.50077838,29.751946 C6.55901399,29.751946 5.85060714,29.3394031 5.37555784,28.5143175 C4.90050854,27.6892319 4.87967305,26.8724805 5.31305135,26.0640633 L7.00072649,23.0012454 L2.50025946,13.5002595 L1.22512714,13.5002595 C0.866756613,13.5002595 0.575059676,13.3794136 0.350036325,13.1377218 C0.116678775,12.8960301 0,12.6001661 0,12.2501297 C0,11.9000934 0.120845874,11.6042294 0.362537622,11.3625376 C0.595895172,11.1208459 0.891759208,11 1.25012973,11 L3.28784119,11 C3.51286454,11 3.7295537,11.0625065 3.93790865,11.1875195 C4.14626361,11.3125324 4.30461337,11.4875506 4.41295795,11.7125739 L5.25054487,13.5002595 L23.6899584,13.5002595 C24.2566839,13.5002595 24.6442241,13.7086144 24.852579,14.1253243 C25.060934,14.5420342 25.0484327,14.9795796 24.8150751,15.4379605 L20.3771146,23.4387908 C20.1437571,23.8555007 19.8437259,24.1805345 19.4770212,24.413892 C19.1019823,24.6389154 18.6727711,24.751427 18.1893876,24.751427 L8.87592109,24.751427 L7.50077838,27.2516865 L21.2897093,27.2516865 C21.6397456,27.2516865 21.9314426,27.3725324 22.1648001,27.6142241 C22.3898235,27.8559159 22.5023351,28.1517799 22.5023351,28.5018162 C22.5023351,28.8518526 22.3814893,29.1477166 22.1397975,29.3894083 C21.8981058,29.6311001 21.6022417,29.751946 21.2522054,29.751946 L7.50077838,29.751946 Z" id="Shape"></path>
                        </g>
                    </g>
                </g>
            </g>
        </g>
    </g>
</svg>