<svg width="21" height="23" viewBox="0 0 21 23" fill="none" xmlns="http://www.w3.org/2000/svg">
<path d="M17.3786 2.84921C15.5413 1.01187 13.0984 0 10.5 0C7.90168 0 5.45874 1.01187 3.62143 2.84921C1.78408 4.68661 0.772217 7.12946 0.772217 9.72779C0.772217 14.9842 5.74228 19.3562 8.41239 21.705C8.78345 22.0314 9.10388 22.3133 9.35917 22.5517C9.67901 22.8505 10.0896 22.9999 10.5 22.9999C10.9105 22.9999 11.321 22.8505 11.6409 22.5517C11.8962 22.3132 12.2166 22.0314 12.5877 21.705C15.2578 19.3562 20.2278 14.9842 20.2278 9.72779C20.2278 7.12946 19.216 4.68661 17.3786 2.84921ZM11.6978 20.6934C11.3186 21.027 10.9911 21.3151 10.7212 21.5672C10.5971 21.683 10.4029 21.683 10.2788 21.5672C10.0089 21.315 9.68139 21.0269 9.30221 20.6934C6.79197 18.4853 2.11942 14.375 2.11942 9.72783C2.11942 5.10681 5.87889 1.34734 10.5 1.34734C15.121 1.34734 18.8804 5.10681 18.8804 9.72783C18.8805 14.375 14.208 18.4853 11.6978 20.6934Z" fill="#FA7B47"/>
<path d="M10.5001 5.07324C8.13624 5.07324 6.21313 6.9963 6.21313 9.36014C6.21313 11.724 8.13624 13.647 10.5001 13.647C12.8639 13.647 14.787 11.724 14.787 9.36014C14.787 6.9963 12.8639 5.07324 10.5001 5.07324ZM10.5001 12.2997C8.87916 12.2997 7.56043 10.981 7.56043 9.36009C7.56043 7.73922 8.87916 6.42049 10.5001 6.42049C12.121 6.42049 13.4397 7.73922 13.4397 9.36009C13.4397 10.981 12.121 12.2997 10.5001 12.2997Z" fill="#FA7B47"/>
</svg>
