<svg width="28" height="34" viewBox="0 0 28 34" fill="none" xmlns="http://www.w3.org/2000/svg">
<path d="M22.464 3.12968C20.8805 1.83305 19.0288 0.904026 17.0427 0.409616C15.0567 -0.0847948 12.9856 -0.132266 10.9789 0.270625C8.39881 0.799604 6.02511 2.0591 4.14061 3.89909C2.2561 5.73908 0.940227 8.082 0.34973 10.6488C-0.240767 13.2155 -0.0809946 15.8979 0.810014 18.3764C1.70102 20.8549 3.28571 23.0251 5.37531 24.6284C7.76106 26.3745 9.79235 28.5591 11.3606 31.0654L12.4291 32.8422C12.5648 33.0679 12.7566 33.2547 12.9858 33.3843C13.215 33.514 13.4739 33.5821 13.7373 33.5821C14.0006 33.5821 14.2595 33.514 14.4887 33.3843C14.7179 33.2547 14.9097 33.0679 15.0454 32.8422L16.0697 31.1357C17.4353 28.7351 19.2973 26.6535 21.5314 25.0298C23.2831 23.8246 24.7309 22.2287 25.7603 20.3682C26.7898 18.5077 27.3728 16.4334 27.4634 14.309C27.554 12.1846 27.1497 10.0682 26.2823 8.12675C25.415 6.18535 24.1084 4.47206 22.4656 3.12205L22.464 3.12968ZM13.7357 19.846C12.5281 19.846 11.3476 19.4879 10.3435 18.8169C9.33941 18.146 8.55681 17.1924 8.09467 16.0767C7.63253 14.961 7.51162 13.7333 7.74721 12.5489C7.98281 11.3645 8.56433 10.2765 9.41825 9.42263C10.2722 8.56871 11.3601 7.98719 12.5445 7.75159C13.729 7.516 14.9566 7.63691 16.0723 8.09905C17.188 8.56119 18.1416 9.34379 18.8126 10.3479C19.4835 11.352 19.8416 12.5325 19.8416 13.7401C19.8416 15.3595 19.1983 16.9125 18.0532 18.0576C16.9081 19.2027 15.3551 19.846 13.7357 19.846Z" fill="#FA7B47"/>
</svg>
