<svg width="34" height="28" viewBox="0 0 34 28" fill="none" xmlns="http://www.w3.org/2000/svg">
<path d="M30.964 27.3572C31.7283 27.3572 32.3905 27.1048 32.9535 26.6066L23.3208 16.9735C23.0982 17.1328 22.8759 17.2926 22.654 17.4529C21.9332 17.984 21.3481 18.3985 20.8988 18.6954C20.4496 18.9931 19.852 19.2965 19.1059 19.6063C18.3594 19.9164 17.6639 20.0709 17.0187 20.0709H16.9809C16.3356 20.0709 15.6401 19.9164 14.8937 19.6063C14.1472 19.2965 13.5495 18.9931 13.1007 18.6954C12.6515 18.3985 12.0668 17.9841 11.3455 17.4529C11.1247 17.2911 10.9031 17.1304 10.6807 16.9709L1.04606 26.6066C1.60897 27.1048 2.27163 27.3572 3.03583 27.3572H30.964ZM1.9165 10.9075C1.19569 10.4269 0.556486 9.87654 0 9.25659V23.9126L8.49026 15.4223C6.79173 14.2365 4.60325 12.7333 1.9165 10.9075ZM32.1027 10.9075C29.5184 12.6566 27.322 14.1624 25.5131 15.4257L34 23.913V9.25659C33.4559 9.86407 32.8235 10.4141 32.1027 10.9075Z" fill="#FA7B47"/>
<path d="M30.9647 0.642822H3.0365C2.06217 0.642822 1.31309 0.971837 0.788329 1.62919C0.263139 2.28685 0.000976562 3.10933 0.000976562 4.09569C0.000976562 4.89243 0.348881 5.75571 1.04438 6.68578C1.73988 7.61548 2.47995 8.34573 3.26422 8.87691C3.69416 9.18068 4.99071 10.082 7.15388 11.5807C8.17356 12.2869 9.19219 12.9946 10.2098 13.7039C10.849 14.149 11.4874 14.5956 12.1247 15.0434C12.1855 15.0861 12.2811 15.1545 12.4081 15.2452C12.5448 15.3435 12.7178 15.4681 12.9313 15.6222C13.3423 15.9195 13.6838 16.1598 13.9558 16.3434C14.2274 16.527 14.5565 16.7322 14.9425 16.9599C15.3283 17.1874 15.6921 17.3585 16.0336 17.4722C16.3751 17.5859 16.6913 17.643 16.9822 17.643H17.02C17.3108 17.643 17.627 17.5859 17.9686 17.4722C18.31 17.3585 18.6736 17.1878 19.0596 16.9599C19.4453 16.7322 19.7739 16.5266 20.0464 16.3434C20.3184 16.1598 20.6599 15.9196 21.071 15.6222C21.284 15.4681 21.457 15.3434 21.5938 15.2455C21.688 15.1778 21.7826 15.1104 21.8775 15.0434C22.2901 14.7563 22.933 14.3094 23.7975 13.7091C25.3705 12.6162 27.687 11.0076 30.7569 8.87691C31.6802 8.23203 32.4516 7.45381 33.0715 6.54337C33.6904 5.63293 34.0006 4.67792 34.0006 3.67865C34.0006 2.84377 33.6998 2.12938 33.0995 1.53437C32.4985 0.940109 31.7868 0.642822 30.9647 0.642822Z" fill="#FA7B47"/>
</svg>
