<svg width="23" height="19" viewBox="0 0 23 19" fill="none" xmlns="http://www.w3.org/2000/svg">
<path d="M20.9785 0.740234H2.02148C0.90823 0.740234 0 1.64748 0 2.76172V16.2383C0 17.3487 0.904188 18.2598 2.02148 18.2598H20.9785C22.089 18.2598 23 17.3556 23 16.2383V2.76172C23 1.65125 22.0958 0.740234 20.9785 0.740234ZM20.6994 2.08789L11.5429 11.2445L2.30714 2.08789H20.6994ZM1.34766 15.9592V3.03435L7.83792 9.46896L1.34766 15.9592ZM2.30058 16.9121L8.79494 10.4178L11.0705 12.6738C11.334 12.935 11.7591 12.9341 12.0214 12.6718L14.2402 10.4529L20.6994 16.9121H2.30058ZM21.6523 15.9592L15.1932 9.5L21.6523 3.04077V15.9592Z" fill="#FA7B47"/>
</svg>
