<svg width="24" height="25" viewBox="0 0 24 25" fill="none" xmlns="http://www.w3.org/2000/svg">
<path d="M19.5 9.75C19.5 11.9062 18.7969 13.9219 17.625 15.5156L23.5312 21.4688C24.1406 22.0312 24.1406 23.0156 23.5312 23.5781C22.9688 24.1875 21.9844 24.1875 21.4219 23.5781L15.4688 17.625C13.875 18.8438 11.8594 19.5 9.75 19.5C4.35938 19.5 0 15.1406 0 9.75C0 4.40625 4.35938 0 9.75 0C15.0938 0 19.5 4.40625 19.5 9.75ZM9.75 16.5C13.4531 16.5 16.5 13.5 16.5 9.75C16.5 6.04688 13.4531 3 9.75 3C6 3 3 6.04688 3 9.75C3 13.5 6 16.5 9.75 16.5Z" fill="white"/>
</svg>
