<svg width="46" height="46" viewBox="0 0 46 46" fill="none" xmlns="http://www.w3.org/2000/svg">
<path d="M45.8475 13.1486C45.8485 12.7216 45.7648 12.2986 45.6012 11.9042C45.4376 11.5098 45.1974 11.1517 44.8944 10.8508L42.1677 8.12325L44.2802 6.01075C44.812 5.47777 45.1107 4.75559 45.1107 4.00266C45.1107 3.24972 44.812 2.52754 44.2802 1.99456C44.0285 1.67699 43.713 1.41579 43.354 1.22785C42.995 1.03991 42.6006 0.929426 42.1962 0.90354C41.7918 0.877654 41.3865 0.936945 41.0065 1.07758C40.6265 1.21821 40.2803 1.43705 39.9902 1.71994L37.8777 3.83244L35.1493 1.10488C34.5398 0.495595 33.7133 0.15332 32.8515 0.15332C31.9897 0.15332 31.1632 0.495595 30.5538 1.10488L28.1236 3.53506C24.1375 -0.202436 18.0405 6.04325 21.8917 9.94081L26.8309 14.8792L14.879 26.8311L9.94065 21.8927C6.04878 18.0447 -0.193661 24.1271 3.5349 28.1229L1.10553 30.5531C0.803718 30.8549 0.56431 31.2132 0.400972 31.6075C0.237634 32.0018 0.153564 32.4245 0.153564 32.8513C0.153564 33.2781 0.237634 33.7007 0.400972 34.095C0.56431 34.4894 0.803718 34.8476 1.10553 35.1494L3.83228 37.877L1.71978 39.9895C-0.928161 42.6838 3.29928 46.9388 6.00978 44.2811L8.12228 42.1678L10.8507 44.8954C11.4601 45.5047 12.2866 45.8469 13.1484 45.8469C14.0102 45.8469 14.8367 45.5047 15.4461 44.8954L17.8763 42.4652C21.8625 46.2027 27.9595 39.9562 24.1082 36.0594L19.169 31.1211L31.1209 19.1692L36.0593 24.1076C36.4888 24.5251 37.0017 24.8471 37.5644 25.0524C38.1271 25.2577 38.7269 25.3417 39.3244 25.2989C39.9218 25.2561 40.5035 25.0874 41.0312 24.804C41.5588 24.5205 42.0206 24.1287 42.3862 23.6542C43.1473 22.8902 43.5811 21.86 43.5958 20.7817C43.6105 19.7034 43.205 18.6618 42.465 17.8773L44.8944 15.4471C45.1973 15.146 45.4374 14.7878 45.6009 14.3933C45.7643 13.9987 45.8487 13.5756 45.8475 13.1486ZM41.1374 2.86881C42.2912 1.69719 44.3021 3.70569 43.1305 4.86106L41.018 6.97356L39.0257 4.98131L41.1374 2.86881ZM4.86171 43.1314C3.70796 44.3031 1.69703 42.2946 2.86865 41.1392L4.98115 39.0267L6.9734 41.0189L4.86171 43.1314ZM14.2973 43.7465C13.9876 44.0417 13.5762 44.2065 13.1484 44.2065C12.7206 44.2065 12.3092 44.0417 11.9995 43.7465L2.2544 34.0006C1.95149 33.6948 1.78156 33.2817 1.78156 32.8513C1.78156 32.4208 1.95149 32.0078 2.2544 31.702L4.67565 29.2808L16.7193 41.3244L14.2973 43.7465ZM22.9585 40.7841C22.7051 41.1501 22.3661 41.4486 21.971 41.6536C21.5759 41.8587 21.1367 41.9641 20.6916 41.9608C20.2464 41.9574 19.8089 41.8453 19.4169 41.6343C19.025 41.4233 18.6905 41.1197 18.4427 40.75L4.76259 27.0707C4.49737 26.7903 4.29654 26.4554 4.17413 26.0893C4.05171 25.7232 4.01065 25.3349 4.05382 24.9513C4.09699 24.5677 4.22335 24.1982 4.42407 23.8685C4.62479 23.5388 4.89504 23.2569 5.21596 23.0424C5.69043 22.569 6.33327 22.3032 7.00346 22.3032C7.67366 22.3032 8.3165 22.569 8.79096 23.0424L22.9593 37.2083C23.4325 37.6829 23.6982 38.3257 23.6982 38.9958C23.6982 39.6659 23.4325 40.3087 22.9593 40.7833L22.9585 40.7841ZM29.972 18.0211L18.0202 29.9714L16.0279 27.9783L27.9798 16.0264L29.972 18.0211ZM41.2373 22.5053C41.0229 22.8264 40.7409 23.0967 40.4111 23.2975C40.0814 23.4984 39.7117 23.6248 39.3281 23.6679C38.9444 23.7111 38.5559 23.67 38.1898 23.5475C37.8236 23.425 37.4886 23.2241 37.2081 22.9587L23.0414 8.79194C22.5681 8.31747 22.3022 7.67464 22.3022 7.00444C22.3022 6.33424 22.5681 5.69141 23.0414 5.21694C23.303 4.86397 23.6399 4.57366 24.0276 4.36707C24.4154 4.16049 24.8442 4.0428 25.2831 4.02256C25.7296 4.04517 26.1655 4.16702 26.559 4.37925C26.9526 4.59148 27.2939 4.88875 27.5581 5.24944L40.7507 18.4428L41.2382 18.9303C41.7115 19.4048 41.9773 20.0476 41.9773 20.7178C41.9773 21.388 41.7107 22.0308 41.2373 22.5053ZM43.7455 14.2983L41.3243 16.7195L29.2806 4.67581L31.7018 2.25456C32.0116 1.95884 32.4233 1.79384 32.8515 1.79384C33.2797 1.79384 33.6915 1.95884 34.0012 2.25456L43.7447 11.9989C44.0476 12.3047 44.2176 12.7177 44.2176 13.1482C44.2176 13.5786 44.0476 13.9916 43.7447 14.2974L43.7455 14.2983Z" fill="#FA7B47"/>
</svg>
