<svg width="52" height="52" viewBox="0 0 52 52" fill="none" xmlns="http://www.w3.org/2000/svg">
<path d="M50.0474 16.0009C49.202 12.9242 47.9887 10.1562 46.441 7.77365C44.8733 5.36039 43.0387 3.45978 40.988 2.12456C38.8226 0.714827 36.5146 0 34.1277 0H17.872C15.4852 0 13.1772 0.714827 11.0119 2.12466C8.96119 3.45978 7.12653 5.3605 5.55892 7.77365C4.01123 10.156 2.79783 12.9242 1.95251 16.0009C1.08164 19.1703 0.640137 22.5344 0.640137 25.9999C0.640137 29.4655 1.08164 32.8297 1.95251 35.999C2.79794 39.0757 4.01123 41.8437 5.55892 44.2262C7.12653 46.6395 8.96119 48.5401 11.0119 49.8753C13.1772 51.2852 15.4852 52 17.872 52H34.1277C36.5146 52 38.8227 51.2852 40.988 49.8753C43.0387 48.5401 44.8733 46.6395 46.441 44.2262C47.9887 41.8438 49.2021 39.0757 50.0474 35.999C50.9183 32.8296 51.3598 29.4655 51.3598 25.9999C51.3598 22.5344 50.9182 19.1703 50.0474 16.0009ZM6.59634 42.1875C5.7011 40.6503 4.94599 38.9634 4.3414 37.1639L10.9949 40.2915C11.6058 41.6965 12.3077 43.0116 13.0967 44.2262C13.1111 44.2484 13.1257 44.2702 13.1401 44.2923L6.59634 42.1875ZM4.14139 15.4539L8.82161 18.1297C8.86698 18.1556 8.9142 18.1772 8.96249 18.1954C8.5956 19.9645 8.3565 21.7848 8.24712 23.6415L2.86768 21.4329C3.12216 19.3514 3.55045 17.3446 4.14139 15.4539ZM17.0046 28.9518L10.3893 30.4335C10.2159 28.962 10.1293 27.4817 10.1301 26.0001C10.1301 25.928 10.1305 25.8561 10.1309 25.7841L16.9336 24.2606C16.9085 24.8401 16.8959 25.42 16.8959 26.0001C16.896 26.9931 16.9324 27.9777 17.0046 28.9518ZM8.17901 25.7237C8.16764 27.2391 8.24342 28.7539 8.40599 30.2606L2.64124 27.9347C2.56593 26.4452 2.57768 24.9527 2.67643 23.4646L8.17901 25.7237ZM8.71516 32.4905C8.91473 33.6722 9.17344 34.8432 9.4903 35.9991C9.64384 36.5582 9.81167 37.1133 9.99364 37.6638L4.01285 34.8524C3.8959 34.7973 3.76916 34.766 3.64001 34.7604C3.26629 33.2643 2.98961 31.7078 2.81472 30.1097L8.71516 32.4905ZM15.9011 44.7892C15.4865 44.2659 15.097 43.7231 14.7338 43.1628C14.142 42.2519 13.6035 41.2802 13.1201 40.257L19.1512 38.9062C19.7807 40.5751 20.5311 42.131 21.3959 43.5586L15.9011 44.7892ZM12.3375 38.4317C11.6038 36.5385 11.0447 34.5021 10.6727 32.3705L17.1999 30.9087C17.4189 32.6493 17.7554 34.3506 18.2084 35.999C18.3049 36.3503 18.4071 36.7 18.5149 37.0481L12.3375 38.4317ZM17.0741 22.2285L10.1953 23.769C10.3134 21.747 10.5917 19.7783 11.0208 17.8984L18.1257 16.3072C17.6191 18.2186 17.2678 20.1991 17.0741 22.2285ZM18.7698 14.1625L11.5816 15.7723C12.0516 14.2103 12.6313 12.7249 13.3149 11.3391L20.6872 9.68801C19.9466 11.0772 19.3058 12.5727 18.7698 14.1625ZM22.079 7.37579L14.5961 9.05169C14.6417 8.97979 14.6876 8.90832 14.7337 8.83717C17.618 4.39736 21.4094 1.95216 25.4098 1.95216H27.5395C27.4487 2.00858 27.3579 2.06575 27.2676 2.12456C25.3312 3.38549 23.5874 5.15096 22.079 7.37579ZM17.872 1.95216H18.8217C18.7309 2.00858 18.6401 2.06575 18.5498 2.12456C16.4991 3.45978 14.6644 5.36039 13.0967 7.77365C12.8047 8.22335 12.5271 8.68219 12.2642 9.14948L8.49966 7.04084C11.1792 3.74263 14.449 1.95216 17.872 1.95216ZM7.19595 8.83717C7.24197 8.76624 7.28832 8.69585 7.33488 8.626L11.368 10.8852C10.6181 12.4721 9.98995 14.1825 9.4903 16.0009C9.46951 16.0765 9.44926 16.1523 9.4289 16.2281L4.79547 13.5791C5.4568 11.8704 6.25999 10.2779 7.19595 8.83717ZM17.872 50.0478C14.3987 50.0478 11.0829 48.2042 8.38173 44.8125L14.8391 46.8897C14.9357 46.9207 15.0365 46.9365 15.138 46.9365C15.1451 46.9365 15.1523 46.9361 15.1593 46.936C16.2075 48.105 17.3411 49.0885 18.5497 49.8754C18.64 49.9342 18.7307 49.9914 18.8216 50.0478H17.872ZM25.4099 50.0478C22.5466 50.0478 19.7903 48.7949 17.3971 46.4547L22.5544 45.2996C23.95 47.2088 25.5314 48.7448 27.2677 49.8753C27.358 49.9341 27.4488 49.9913 27.5397 50.0477L25.4099 50.0478ZM44.8039 43.1628C41.9197 47.6026 38.1281 50.0478 34.1277 50.0478C30.2816 50.0478 26.6286 47.7872 23.7893 43.6668C23.7817 43.6552 23.7738 43.6437 23.7656 43.6325C23.659 43.4773 23.5544 43.3207 23.4517 43.1628C22.3587 41.4803 21.4468 39.5909 20.7304 37.5509C20.7143 37.4795 20.6903 37.4102 20.6586 37.3442C19.8414 34.9613 19.2893 32.3776 19.0261 29.6806C19.0246 29.6432 19.021 29.6058 19.0152 29.5688C18.9035 28.3824 18.8478 27.1915 18.8481 25.9999C18.8481 25.0407 18.8841 24.0903 18.9544 23.1523C18.9589 23.1176 18.9615 23.0824 18.9623 23.0469C19.3804 17.6711 20.9377 12.7073 23.4518 8.83717C26.336 4.39736 30.1274 1.95216 34.1277 1.95216C38.1282 1.95216 41.9197 4.39725 44.8039 8.83717C47.7726 13.4071 49.4076 19.5024 49.4076 25.9999C49.4076 32.4976 47.7726 38.5929 44.8039 43.1628Z" fill="#FA7B47"/>
<path d="M34.1276 4.31006C29.8439 4.31006 26.839 7.95123 25.4292 10.1216C24.1232 12.1321 23.092 14.4944 22.3644 17.1427C21.5958 19.9397 21.2061 22.9196 21.2061 25.9998C21.2061 29.0801 21.5958 32.0601 22.3644 34.8568C23.092 37.5053 24.1232 39.8675 25.4292 41.8781C26.839 44.0484 29.8439 47.6896 34.1276 47.6896C38.4116 47.6896 41.4165 44.0484 42.8263 41.8781C44.1323 39.8676 45.1634 37.5054 45.8911 34.8568C46.6597 32.0597 47.0493 29.0797 47.0493 25.9997C47.0493 22.9198 46.6597 19.94 45.8911 17.1426C45.1634 14.494 44.1323 12.1318 42.8263 10.1214C41.4165 7.95123 38.4116 4.31006 34.1276 4.31006ZM45.0973 25.9998C45.0973 28.905 44.731 31.711 44.0088 34.3396C43.3344 36.7943 42.3858 38.9728 41.1893 40.8146C39.995 42.6531 37.4895 45.7374 34.1276 45.7374C30.766 45.7374 28.2605 42.6531 27.0663 40.8146C25.8698 38.9727 24.9213 36.7942 24.2469 34.3395C23.5246 31.7112 23.1583 28.9053 23.1583 25.9997C23.1583 23.0942 23.5246 20.2882 24.2469 17.6598C24.9212 15.2053 25.8698 13.0268 27.0663 11.1849C28.2605 9.34644 30.766 6.26211 34.1276 6.26211C37.4895 6.26211 39.995 9.34644 41.1893 11.1849C42.3858 13.0267 43.3344 15.2052 44.0088 17.6598C44.731 20.2888 45.0973 23.0947 45.0973 25.9998Z" fill="#FA7B47"/>
<path d="M36.8907 9.63455C35.9479 8.88788 34.9925 8.49316 34.1278 8.49316C33.2631 8.49316 32.3077 8.88788 31.365 9.63455C30.5143 10.3082 29.6748 11.2646 28.937 12.4004C26.6823 15.8712 25.3892 20.8281 25.3892 26C25.3892 31.1718 26.6823 36.1287 28.937 39.5996C29.6748 40.7353 30.5143 41.6917 31.365 42.3654C32.3077 43.1121 33.2631 43.5068 34.1278 43.5068C34.9926 43.5068 35.9479 43.1121 36.8907 42.3654C37.7411 41.6918 38.5807 40.7354 39.3187 39.5996C41.5734 36.1287 42.8665 31.1718 42.8665 26C42.8665 20.828 41.5733 15.8712 39.3186 12.4004C38.5808 11.2646 37.7412 10.3082 36.8907 9.63455ZM37.6817 38.5361C37.0578 39.4965 36.3651 40.2915 35.6786 40.8352C35.0928 41.2992 34.542 41.5547 34.1278 41.5547C33.7137 41.5547 33.1629 41.2992 32.5771 40.8352C31.8906 40.2914 31.198 39.4964 30.5741 38.5361C28.5196 35.3735 27.3414 30.8043 27.3414 26C27.3414 21.1957 28.5197 16.6264 30.5741 13.4639C31.1979 12.5036 31.8905 11.7086 32.5771 11.1649C33.1629 10.7009 33.7137 10.4453 34.1278 10.4453C34.5421 10.4453 35.0929 10.7009 35.6786 11.1648C36.3651 11.7085 37.0577 12.5035 37.6816 13.4638C39.7361 16.6263 40.9144 21.1956 40.9144 25.9999C40.9144 30.8042 39.7362 35.3735 37.6817 38.5361Z" fill="#FA7B47"/>
</svg>
