<svg width="52" height="36" viewBox="0 0 52 36" fill="none" xmlns="http://www.w3.org/2000/svg">
<path d="M12.1876 24.4998C9.83597 24.4403 7.59707 23.4796 5.93368 21.8162C4.27029 20.1528 3.30958 17.9139 3.25011 15.5623C3.21341 14.0929 3.50983 12.6343 4.11715 11.2959C4.72447 9.95738 5.62693 8.77377 6.75686 7.83377C6.91405 7.68637 7.12337 7.60746 7.33875 7.61439C7.55413 7.62133 7.75793 7.71354 7.90532 7.87074C8.05272 8.02793 8.13163 8.23725 8.1247 8.45263C8.11776 8.66801 8.02556 8.87181 7.86836 9.0192C6.90323 9.80912 6.1317 10.8095 5.61287 11.9436C5.09404 13.0777 4.84168 14.3155 4.87511 15.5623C4.92367 17.4864 5.70969 19.3182 7.07066 20.6792C8.43163 22.0402 10.2635 22.8262 12.1876 22.8748C14.1117 22.8262 15.9436 22.0402 17.3046 20.6792C18.6655 19.3182 19.4515 17.4864 19.5001 15.5623C19.5001 11.6623 17.5826 9.95602 15.553 8.15714C14.1762 7.08634 13.0298 5.74849 12.1827 4.22383C11.5079 5.50136 10.5916 6.63574 9.48442 7.56402C9.324 7.70131 9.11643 7.77076 8.90568 7.75765C8.69494 7.74454 8.49757 7.6499 8.3554 7.49379C8.21323 7.33767 8.13741 7.13234 8.14402 6.92129C8.15063 6.71025 8.23913 6.51006 8.39079 6.36314C9.88011 5.00708 11.2297 3.56814 11.3767 0.892578C11.3767 0.67709 11.4623 0.470427 11.6147 0.318054C11.7671 0.165681 11.9737 0.0800781 12.1892 0.0800781C12.4047 0.0800781 12.6114 0.165681 12.7638 0.318054C12.9161 0.470427 13.0017 0.67709 13.0017 0.892578C13.1642 3.86389 14.773 5.28983 16.6344 6.94164C18.738 8.80958 21.1251 10.931 21.1251 15.5623C21.0656 17.9139 20.1049 20.1528 18.4415 21.8162C16.7781 23.4796 14.5392 24.4403 12.1876 24.4998Z" fill="#FA7B47"/>
<path d="M17.0625 16.375C16.847 16.375 16.6403 16.2894 16.488 16.137C16.3356 15.9847 16.25 15.778 16.25 15.5625C16.25 13.125 15.1938 12.1882 13.2811 10.4893L14.352 9.27051L13.8125 9.87501L14.3593 9.27376C16.3239 11.0166 17.875 12.3938 17.875 15.5625C17.875 15.778 17.7894 15.9847 17.637 16.137C17.4847 16.2894 17.278 16.375 17.0625 16.375ZM51.1875 31.8125H6.5C6.28451 31.8125 6.07785 31.7269 5.92548 31.5745C5.7731 31.4222 5.6875 31.2155 5.6875 31C5.6875 30.7845 5.7731 30.5779 5.92548 30.4255C6.07785 30.2731 6.28451 30.1875 6.5 30.1875H51.1875C51.403 30.1875 51.6097 30.2731 51.762 30.4255C51.9144 30.5779 52 30.7845 52 31C52 31.2155 51.9144 31.4222 51.762 31.5745C51.6097 31.7269 51.403 31.8125 51.1875 31.8125ZM4.0625 31.8125H0.8125C0.597012 31.8125 0.390349 31.7269 0.237976 31.5745C0.0856024 31.4222 0 31.2155 0 31C0 30.7845 0.0856024 30.5779 0.237976 30.4255C0.390349 30.2731 0.597012 30.1875 0.8125 30.1875H4.0625C4.27799 30.1875 4.48465 30.2731 4.63702 30.4255C4.7894 30.5779 4.875 30.7845 4.875 31C4.875 31.2155 4.7894 31.4222 4.63702 31.5745C4.48465 31.7269 4.27799 31.8125 4.0625 31.8125ZM51.1875 35.875H47.9375C47.722 35.875 47.5153 35.7894 47.363 35.637C47.2106 35.4847 47.125 35.278 47.125 35.0625C47.125 34.847 47.2106 34.6404 47.363 34.488C47.5153 34.3356 47.722 34.25 47.9375 34.25H51.1875C51.403 34.25 51.6097 34.3356 51.762 34.488C51.9144 34.6404 52 34.847 52 35.0625C52 35.278 51.9144 35.4847 51.762 35.637C51.6097 35.7894 51.403 35.875 51.1875 35.875ZM45.5 35.875H0.8125C0.597012 35.875 0.390349 35.7894 0.237976 35.637C0.0856024 35.4847 0 35.278 0 35.0625C0 34.847 0.0856024 34.6404 0.237976 34.488C0.390349 34.3356 0.597012 34.25 0.8125 34.25H45.5C45.7155 34.25 45.9222 34.3356 46.0745 34.488C46.2269 34.6404 46.3125 34.847 46.3125 35.0625C46.3125 35.278 46.2269 35.4847 46.0745 35.637C45.9222 35.7894 45.7155 35.875 45.5 35.875Z" fill="#FA7B47"/>
<path d="M23.5623 31.8123C23.3468 31.8122 23.1402 31.7266 22.9878 31.5742L16.4878 25.0742C16.3398 24.921 16.2579 24.7157 16.2598 24.5027C16.2616 24.2897 16.3471 24.0859 16.4977 23.9352C16.6484 23.7846 16.8522 23.6991 17.0652 23.6973C17.2782 23.6954 17.4835 23.7773 17.6367 23.9253L23.5623 29.8509L36.8003 16.6128C36.9536 16.4648 37.1588 16.3829 37.3719 16.3848C37.5849 16.3866 37.7887 16.4721 37.9393 16.6227C38.09 16.7734 38.1754 16.9772 38.1773 17.1902C38.1791 17.4032 38.0972 17.6085 37.9492 17.7617L24.1367 31.5742C23.9844 31.7266 23.7778 31.8122 23.5623 31.8123Z" fill="#FA7B47"/>
<path d="M37.375 22.875C37.1595 22.875 36.9528 22.7894 36.8005 22.637C36.6481 22.4847 36.5625 22.278 36.5625 22.0625V17.1875C36.5625 16.972 36.6481 16.7653 36.8005 16.613C36.9528 16.4606 37.1595 16.375 37.375 16.375C37.5905 16.375 37.7972 16.4606 37.9495 16.613C38.1019 16.7653 38.1875 16.972 38.1875 17.1875V22.0625C38.1875 22.278 38.1019 22.4847 37.9495 22.637C37.7972 22.7894 37.5905 22.875 37.375 22.875Z" fill="#FA7B47"/>
<path d="M37.375 18H32.5C32.2845 18 32.0778 17.9144 31.9255 17.762C31.7731 17.6097 31.6875 17.403 31.6875 17.1875C31.6875 16.972 31.7731 16.7653 31.9255 16.613C32.0778 16.4606 32.2845 16.375 32.5 16.375H37.375C37.5905 16.375 37.7972 16.4606 37.9495 16.613C38.1019 16.7653 38.1875 16.972 38.1875 17.1875C38.1875 17.403 38.1019 17.6097 37.9495 17.762C37.7972 17.9144 37.5905 18 37.375 18Z" fill="#FA7B47"/>
<path d="M31.6873 31.8123C31.4718 31.8122 31.2652 31.7266 31.1128 31.5742L21.3628 21.8242C21.2148 21.671 21.1329 21.4657 21.1348 21.2527C21.1366 21.0397 21.2221 20.8359 21.3727 20.6852C21.5234 20.5346 21.7272 20.4491 21.9402 20.4473C22.1532 20.4454 22.3585 20.5273 22.5117 20.6753L31.6873 29.8509L47.3628 14.1753C47.5161 14.0273 47.7213 13.9454 47.9344 13.9473C48.1474 13.9491 48.3512 14.0346 48.5018 14.1852C48.6525 14.3359 48.7379 14.5397 48.7398 14.7527C48.7416 14.9657 48.6597 15.171 48.5117 15.3242L32.2617 31.5742C32.1094 31.7266 31.9028 31.8122 31.6873 31.8123Z" fill="#FA7B47"/>
<path d="M47.9375 20.4375C47.722 20.4375 47.5153 20.3519 47.363 20.1995C47.2106 20.0472 47.125 19.8405 47.125 19.625V14.75C47.125 14.5345 47.2106 14.3278 47.363 14.1755C47.5153 14.0231 47.722 13.9375 47.9375 13.9375C48.153 13.9375 48.3597 14.0231 48.512 14.1755C48.6644 14.3278 48.75 14.5345 48.75 14.75V19.625C48.75 19.8405 48.6644 20.0472 48.512 20.1995C48.3597 20.3519 48.153 20.4375 47.9375 20.4375Z" fill="#FA7B47"/>
<path d="M47.9375 15.5625H43.0625C42.847 15.5625 42.6403 15.4769 42.488 15.3245C42.3356 15.1722 42.25 14.9655 42.25 14.75C42.25 14.5345 42.3356 14.3278 42.488 14.1755C42.6403 14.0231 42.847 13.9375 43.0625 13.9375H47.9375C48.153 13.9375 48.3597 14.0231 48.512 14.1755C48.6644 14.3278 48.75 14.5345 48.75 14.75C48.75 14.9655 48.6644 15.1722 48.512 15.3245C48.3597 15.4769 48.153 15.5625 47.9375 15.5625Z" fill="#FA7B47"/>
</svg>
