<svg width="52" height="34" viewBox="0 0 52 34" fill="none" xmlns="http://www.w3.org/2000/svg">
<path d="M44.3701 26.1542C44.2366 21.3072 42.2183 16.8962 38.9952 13.6724H38.9951C35.5621 10.2401 30.9184 8.28954 25.9998 8.28954H25.9997L25.997 8.28964C25.8613 8.28964 25.7261 8.29147 25.5912 8.29462L25.6044 8.29442C25.5625 8.29531 25.5207 8.29636 25.4788 8.29756L25.559 8.29533C25.4255 8.29868 25.2921 8.30335 25.1587 8.30935C20.5795 8.51755 16.2577 10.4191 13.0044 13.6723L13.0043 13.6724C9.5639 17.1136 7.75589 21.6094 7.62944 26.1551C7.62264 26.3994 7.42053 26.5928 7.17627 26.5928H19.3769C18.7914 23.2021 20.6819 19.5688 24.3722 18.4283L36.3013 14.7415C36.7952 14.5889 37.2581 15.0519 37.1054 15.5458L33.6912 26.5928H44.8232C44.5786 26.5928 44.3768 26.3988 44.3701 26.1542Z" stroke="#FA7B47" stroke-width="2" stroke-miterlimit="10" stroke-linecap="round" stroke-linejoin="round"/>
<path d="M25.5913 8.2947C25.5805 8.29488 25.5698 8.29512 25.5591 8.29541L25.5913 8.2947Z" stroke="#FA7B47" stroke-width="2" stroke-miterlimit="10" stroke-linecap="round" stroke-linejoin="round"/>
<path d="M25.5592 8.29554C25.3185 8.30153 25.1494 8.31006 25.1494 8.31006C25.2856 8.30386 25.4222 8.29899 25.5592 8.29554Z" stroke="#FA7B47" stroke-width="2" stroke-miterlimit="10" stroke-linecap="round" stroke-linejoin="round"/>
<path d="M43.8488 8.8186C39.1033 4.07474 32.7143 1.42457 25.9996 1.42457V8.28947C30.9183 8.28947 35.562 10.2401 38.995 13.6724L41.6274 11.0399L43.8488 8.8186Z" stroke="#FA7B47" stroke-width="2" stroke-miterlimit="10" stroke-linecap="round" stroke-linejoin="round"/>
<path d="M8.15039 8.8181L13.0046 13.6724H13.0047V13.6723C16.4565 10.2205 21.111 8.28947 25.9999 8.28947V1.42457C19.6413 1.42457 13.4585 3.69946 8.15039 8.8181Z" stroke="#FA7B47" stroke-width="2" stroke-miterlimit="10" stroke-linecap="round" stroke-linejoin="round"/>
<path d="M0.763288 26.1262C0.757905 26.3818 0.961842 26.5928 1.21737 26.5928H7.17633C7.42059 26.5928 7.6227 26.3994 7.6294 26.1551C7.75595 21.6095 9.56396 17.1137 13.0044 13.6724L8.15021 8.81827C3.58702 13.3815 0.902936 19.5361 0.763288 26.1262Z" stroke="#FA7B47" stroke-width="2" stroke-miterlimit="10" stroke-linecap="round" stroke-linejoin="round"/>
<path d="M43.8493 8.81827L38.9951 13.6724C42.2183 16.8963 44.2365 21.3073 44.37 26.1542C44.3768 26.3989 44.5785 26.5928 44.8232 26.5928H50.782C51.0376 26.5928 51.2417 26.3819 51.2362 26.1264C51.0991 19.6981 48.5202 13.4878 43.8493 8.81827Z" stroke="#FA7B47" stroke-width="2" stroke-miterlimit="10" stroke-linecap="round" stroke-linejoin="round"/>
<path d="M28.9594 23.6537C28.8554 23.5048 28.7386 23.3652 28.6103 23.2365C27.3982 22.0245 25.4331 22.0245 24.221 23.2365C23.009 24.4486 23.009 26.4136 24.221 27.6256C25.4331 28.8377 27.3982 28.8377 28.6103 27.6256C28.7386 27.497 28.8554 27.3574 28.9594 27.2084" stroke="#FA7B47" stroke-width="2" stroke-miterlimit="10" stroke-linecap="round" stroke-linejoin="round"/>
<path d="M28.1929 32.3726C30.5391 31.8101 32.6081 30.097 33.4185 27.4748L37.1053 15.5457C37.2579 15.0518 36.7949 14.5889 36.301 14.7416L24.372 18.4283C19.1681 20.0366 17.5417 26.6022 21.3931 30.4536C22.3471 31.4077 23.4677 32.0251 24.6382 32.3358" stroke="#FA7B47" stroke-width="2" stroke-miterlimit="10" stroke-linecap="round" stroke-linejoin="round"/>
</svg>
