<svg width="52" height="52" viewBox="0 0 52 52" fill="none" xmlns="http://www.w3.org/2000/svg">
<path d="M50.9843 49.9685H46.5155V48.6196C46.5155 48.059 46.0605 47.604 45.4999 47.604C44.939 47.604 44.4843 48.059 44.4843 48.6196V49.9685H27.0156V48.6196C27.0156 48.059 26.5609 47.604 25.9999 47.604C25.439 47.604 24.9843 48.059 24.9843 48.6196V49.9685H7.51561V48.6196C7.51561 48.059 7.06092 47.604 6.49999 47.604C5.93906 47.604 5.48436 48.059 5.48436 48.6196V49.9685H1.01562C0.454694 49.9685 0 50.4235 0 50.9841C0 51.545 0.454694 51.9997 1.01562 51.9997H50.9843C51.5449 51.9997 51.9999 51.545 51.9999 50.9841C51.9999 50.4235 51.5452 49.9685 50.9843 49.9685Z" fill="#FA7B47"/>
<path d="M4.0629 44.4843C4.0629 45.0452 4.51749 45.4999 5.07852 45.4999H15.2474V46.8487C15.2474 47.4098 15.702 47.8644 16.2631 47.8644C16.8237 47.8644 17.2787 47.4098 17.2787 46.8487V45.4999H34.747V46.8487C34.747 47.4098 35.202 47.8644 35.7626 47.8644C36.3236 47.8644 36.7782 47.4098 36.7782 46.8487V45.4999H50.9843C51.5449 45.4999 51.9999 45.0452 51.9999 44.4843C51.9999 43.9236 51.5449 43.4686 50.9843 43.4686H5.07852C4.51749 43.4686 4.0629 43.9233 4.0629 44.4843ZM1.01562 45.4999C1.28263 45.4999 1.54476 45.3912 1.73367 45.2023C1.92257 45.0134 2.03125 44.7514 2.03125 44.4843C2.03125 44.2172 1.92257 43.9551 1.73367 43.7662C1.54476 43.5773 1.28273 43.4686 1.01562 43.4686C0.748514 43.4686 0.486483 43.5773 0.297578 43.7662C0.108672 43.9554 0 44.2172 0 44.4843C0 44.7514 0.108672 45.0134 0.297578 45.2023C0.4885 45.392 0.746462 45.499 1.01562 45.4999ZM2.83745 23.8354C5.1809 25.0434 9.40843 26.6243 15.4743 26.6243C18.2364 26.6243 21.3797 26.2967 24.899 25.4564C25.103 25.408 25.3037 25.3581 25.5044 25.3077C25.6811 25.2635 25.8427 25.1727 25.9722 25.0446L29.734 21.3225L30.483 22.8142C30.5973 23.0419 30.7929 23.2183 31.0312 23.3084C31.2694 23.3986 31.5328 23.3959 31.7692 23.301C35.1492 21.943 37.9513 20.3025 40.0977 18.4252C40.2054 18.3311 40.2919 18.2153 40.3517 18.0854C40.4115 17.9555 40.4431 17.8144 40.4444 17.6714L40.4674 15.5081L40.9439 15.9845C41.0475 16.0879 41.1723 16.1677 41.3096 16.2185C41.4469 16.2693 41.5936 16.2898 41.7396 16.2787C41.8855 16.2675 42.0274 16.225 42.1554 16.1539C42.2834 16.0829 42.3946 15.985 42.4813 15.8671C44.6454 12.9171 44.9806 9.8107 43.4885 7.27164C43.971 6.90099 44.4487 6.52416 44.9215 6.14125L50.2742 1.80474C50.7098 1.45161 50.7772 0.812074 50.4237 0.376473C50.071 -0.0595337 49.4311 -0.126565 48.9955 0.226466L43.6428 4.56318C43.1774 4.93997 42.7072 5.31094 42.2324 5.67599C40.2508 3.66374 38.1061 2.59104 35.6848 2.40061C32.6336 2.16021 29.1607 3.29913 25.0645 5.88115C24.371 6.31868 23.9885 6.55075 23.2942 6.97244L22.7837 7.2823C22.6405 7.36933 22.5211 7.4904 22.4361 7.63473C22.3511 7.77907 22.3031 7.94219 22.2964 8.10957C22.2897 8.27695 22.3245 8.44339 22.3976 8.59407C22.4708 8.74475 22.5801 8.875 22.7158 8.97321L23.1725 9.3036L20.6322 8.88028C20.3944 8.84099 20.1504 8.88726 19.9436 9.01089C13.9914 12.5727 6.60389 16.8113 2.7303 19.0211C2.30232 19.2648 1.94816 19.6196 1.70528 20.0481C1.46239 20.4765 1.3398 20.9626 1.35047 21.455C1.36079 21.949 1.50441 22.4309 1.76615 22.85C2.02788 23.269 2.3981 23.6095 2.83745 23.8354ZM41.4946 13.6624L40.1953 12.3632C39.9061 12.074 39.472 11.9867 39.0936 12.141C38.7151 12.2954 38.4659 12.662 38.4615 13.0705L38.4183 17.1882C36.6775 18.6375 34.4807 19.9359 31.8739 21.0575L30.9218 19.1611C30.8498 19.0178 30.745 18.8936 30.6159 18.7986C30.4868 18.7036 30.337 18.6405 30.1788 18.6145C30.0206 18.5885 29.8585 18.6003 29.7057 18.649C29.553 18.6977 29.4139 18.7818 29.2999 18.8945L24.7415 23.4041C24.6376 23.4299 24.5333 23.4557 24.4277 23.4807C21.0658 24.2829 18.0793 24.5948 15.4652 24.5948C9.82737 24.5948 5.92707 23.1431 3.76816 22.0299L3.76573 22.0286C3.81153 22.0324 3.85755 22.0331 3.90345 22.0307C11.3573 21.5981 18.6979 20.0036 25.6595 17.3049C31.4121 15.0777 36.8531 12.1173 41.8477 8.49709C42.6602 10.032 42.542 11.8062 41.4947 13.6625L41.4946 13.6624ZM20.6659 10.9457L27.1048 12.0181C27.3307 12.0557 27.5627 12.016 27.7632 11.9052C27.9636 11.7945 28.1207 11.6192 28.209 11.4079C28.2974 11.1966 28.3117 10.9617 28.2496 10.7412C28.1876 10.5208 28.0529 10.3277 27.8674 10.1935L25.145 8.22379C25.4807 8.01796 25.815 7.80993 26.1479 7.59969C29.86 5.25939 32.9276 4.22 35.5254 4.42546C37.386 4.57232 39.0063 5.3645 40.586 6.90459C30.2108 14.4179 18.1091 18.8795 5.28876 19.8991C9.30169 17.6032 15.4823 14.0418 20.6659 10.9457ZM12.5667 38.0184C13.1273 38.0184 13.5823 37.5634 13.5823 37.0028C13.5823 36.4418 13.1273 35.9872 12.5667 35.9872H12.5545C11.9935 35.9872 11.5389 36.4418 11.5389 37.0028C11.5389 37.5634 11.9935 38.0184 12.5545 38.0184H12.5667ZM8.09482 36.7683C8.25363 36.8652 8.43609 36.9164 8.62213 36.9163C8.79657 36.9165 8.96813 36.8718 9.12023 36.7864C9.27234 36.701 9.39986 36.5778 9.49049 36.4288C9.78207 35.9494 9.63014 35.3247 9.15097 35.033C7.17324 33.8294 5.99218 31.7282 5.99218 29.4125C5.99218 28.852 5.53748 28.3969 4.97655 28.3969C4.41562 28.3969 3.96093 28.852 3.96093 29.4125C3.96093 32.4428 5.50661 35.1924 8.09482 36.7683ZM46.5155 24.6209C46.5155 24.0603 46.0605 23.6053 45.4999 23.6053C44.939 23.6053 44.4843 24.0603 44.4843 24.6209C44.4843 26.5252 42.9351 28.074 41.0312 28.074C40.4702 28.074 40.0155 28.529 40.0155 29.0897C40.0155 29.6506 40.4702 30.1053 41.0312 30.1053C44.0554 30.1053 46.5155 27.6451 46.5155 24.6209Z" fill="#FA7B47"/>
</svg>
